<mxfile etag="t-BqFBwYZInYwF6D13ZU" agent="5.0 (Windows NT 10.0; Win64; x64) AppleWebKit/537.36 (KHTML, like Gecko) Chrome/90.0.4430.212 Safari/537.36 Edg/90.0.818.62" modified="2021-05-28T00:46:59.147Z" host="app.diagrams.net" version="14.7.2" type="github" pages="2">
  <diagram name="Page-1" id="prtHgNgQTEPvFCAcTncT">
    <mxGraphModel dx="774" dy="681" grid="1" gridSize="5" guides="1" tooltips="1" connect="1" arrows="1" fold="1" page="1" pageScale="1" pageWidth="827" pageHeight="1169" math="0" shadow="0">
      <root>
        <mxCell id="0" />
        <mxCell id="1" parent="0" />
        <mxCell id="mv5QSTBgRpdjpKBlADj9-3" value="" style="shape=process;whiteSpace=wrap;html=1;backgroundOutline=1;size=0.3349875930521092;strokeColor=#B3B3B3;fillColor=none;" parent="1" vertex="1">
          <mxGeometry x="9" y="125.25" width="403" height="4319.75" as="geometry" />
        </mxCell>
        <mxCell id="mv5QSTBgRpdjpKBlADj9-4" value="" style="shape=process;whiteSpace=wrap;html=1;backgroundOutline=1;size=0.3349875930521092;strokeColor=#B3B3B3;fillColor=none;" parent="1" vertex="1">
          <mxGeometry x="412" y="125.48" width="403" height="4319.52" as="geometry" />
        </mxCell>
        <mxCell id="mv5QSTBgRpdjpKBlADj9-5" value="&lt;b&gt;業務プロセス&lt;/b&gt;" style="rounded=0;whiteSpace=wrap;html=1;strokeColor=#B3B3B3;" parent="1" vertex="1">
          <mxGeometry x="9" y="65.5" width="135" height="60" as="geometry" />
        </mxCell>
        <mxCell id="mv5QSTBgRpdjpKBlADj9-6" value="経理担当" style="rounded=0;whiteSpace=wrap;html=1;strokeColor=#B3B3B3;" parent="1" vertex="1">
          <mxGeometry x="144" y="65.5" width="135" height="60" as="geometry" />
        </mxCell>
        <mxCell id="mv5QSTBgRpdjpKBlADj9-7" value="&lt;div&gt;設計事務&lt;/div&gt;&lt;div&gt;（岩崎）&lt;/div&gt;" style="rounded=0;whiteSpace=wrap;html=1;strokeColor=#B3B3B3;" parent="1" vertex="1">
          <mxGeometry x="277" y="65.5" width="135" height="60" as="geometry" />
        </mxCell>
        <mxCell id="mv5QSTBgRpdjpKBlADj9-8" value="設計担当" style="rounded=0;whiteSpace=wrap;html=1;strokeColor=#B3B3B3;" parent="1" vertex="1">
          <mxGeometry x="412" y="65.5" width="135" height="60" as="geometry" />
        </mxCell>
        <mxCell id="mv5QSTBgRpdjpKBlADj9-9" value="鈴木部長" style="rounded=0;whiteSpace=wrap;html=1;strokeColor=#B3B3B3;" parent="1" vertex="1">
          <mxGeometry x="547" y="65.5" width="135" height="60" as="geometry" />
        </mxCell>
        <mxCell id="mv5QSTBgRpdjpKBlADj9-10" value="&lt;div&gt;現場事務&lt;/div&gt;&lt;div&gt;（岩崎or向島）&lt;/div&gt;" style="rounded=0;whiteSpace=wrap;html=1;strokeColor=#B3B3B3;" parent="1" vertex="1">
          <mxGeometry x="680" y="65.5" width="135" height="60" as="geometry" />
        </mxCell>
        <mxCell id="mv5QSTBgRpdjpKBlADj9-140" style="edgeStyle=orthogonalEdgeStyle;rounded=0;orthogonalLoop=1;jettySize=auto;html=1;entryX=0.5;entryY=0;entryDx=0;entryDy=0;" parent="1" source="mv5QSTBgRpdjpKBlADj9-11" target="mv5QSTBgRpdjpKBlADj9-13" edge="1">
          <mxGeometry relative="1" as="geometry" />
        </mxCell>
        <mxCell id="mv5QSTBgRpdjpKBlADj9-11" value="①引き合い" style="rounded=1;whiteSpace=wrap;html=1;fillColor=#FFB570;" parent="1" vertex="1">
          <mxGeometry x="16" y="157.5" width="119" height="43" as="geometry" />
        </mxCell>
        <mxCell id="mv5QSTBgRpdjpKBlADj9-12" value="工事・プロジェクト作成" style="rounded=1;whiteSpace=wrap;html=1;fillColor=#B6EBE1;" parent="1" vertex="1">
          <mxGeometry x="709" y="215.5" width="89" height="43" as="geometry" />
        </mxCell>
        <mxCell id="8Lsw9yTCtssHRGtylrge-4" style="edgeStyle=orthogonalEdgeStyle;rounded=1;orthogonalLoop=1;jettySize=auto;html=1;entryX=0.5;entryY=0;entryDx=0;entryDy=0;" parent="1" source="mv5QSTBgRpdjpKBlADj9-13" target="mv5QSTBgRpdjpKBlADj9-23" edge="1">
          <mxGeometry relative="1" as="geometry" />
        </mxCell>
        <mxCell id="mv5QSTBgRpdjpKBlADj9-13" value="&lt;div&gt;②ヒアリング・&lt;/div&gt;&lt;div&gt;相談&lt;/div&gt;&lt;div&gt;デザイン&lt;/div&gt;&lt;div&gt;打ち合わせ&lt;/div&gt;" style="rounded=1;whiteSpace=wrap;html=1;fillColor=#FFB570;" parent="1" vertex="1">
          <mxGeometry x="16.5" y="241" width="118" height="63" as="geometry" />
        </mxCell>
        <mxCell id="8Lsw9yTCtssHRGtylrge-5" style="edgeStyle=orthogonalEdgeStyle;rounded=1;orthogonalLoop=1;jettySize=auto;html=1;" parent="1" source="mv5QSTBgRpdjpKBlADj9-23" target="mv5QSTBgRpdjpKBlADj9-51" edge="1">
          <mxGeometry relative="1" as="geometry">
            <Array as="points">
              <mxPoint x="78" y="590" />
              <mxPoint x="78" y="590" />
            </Array>
          </mxGeometry>
        </mxCell>
        <mxCell id="mv5QSTBgRpdjpKBlADj9-23" value="&lt;div&gt;③見積作成・提出&lt;br&gt;&lt;/div&gt;" style="rounded=1;whiteSpace=wrap;html=1;fillColor=#FFB570;" parent="1" vertex="1">
          <mxGeometry x="17" y="351" width="117" height="43" as="geometry" />
        </mxCell>
        <mxCell id="mv5QSTBgRpdjpKBlADj9-25" value="&lt;b&gt;&lt;font style=&quot;font-size: 14px&quot;&gt;完　了&lt;/font&gt;&lt;/b&gt;" style="rounded=1;whiteSpace=wrap;html=1;fillColor=#fff2cc;gradientColor=#ffd966;strokeColor=#d6b656;" parent="1" vertex="1">
          <mxGeometry x="21" y="4385" width="110" height="43" as="geometry" />
        </mxCell>
        <mxCell id="evgMNFWdpNjPDC0drzfe-65" style="edgeStyle=orthogonalEdgeStyle;rounded=1;orthogonalLoop=1;jettySize=auto;html=1;entryX=0.5;entryY=0;entryDx=0;entryDy=0;" parent="1" source="mv5QSTBgRpdjpKBlADj9-32" target="evgMNFWdpNjPDC0drzfe-64" edge="1">
          <mxGeometry relative="1" as="geometry" />
        </mxCell>
        <mxCell id="mv5QSTBgRpdjpKBlADj9-32" value="&lt;div&gt;仕入先から&lt;/div&gt;&lt;div&gt;請求書受領&lt;/div&gt;" style="rounded=1;whiteSpace=wrap;html=1;fillColor=#F19C99;" parent="1" vertex="1">
          <mxGeometry x="299" y="2398" width="89" height="43" as="geometry" />
        </mxCell>
        <mxCell id="mv5QSTBgRpdjpKBlADj9-33" value="" style="endArrow=classic;html=1;" parent="1" edge="1">
          <mxGeometry width="50" height="50" relative="1" as="geometry">
            <mxPoint x="345.5" y="179" as="sourcePoint" />
            <mxPoint x="346" y="215" as="targetPoint" />
          </mxGeometry>
        </mxCell>
        <mxCell id="mv5QSTBgRpdjpKBlADj9-34" value="工事・プロジェクト作成" style="rounded=1;whiteSpace=wrap;html=1;fillColor=#B6EBE1;" parent="1" vertex="1">
          <mxGeometry x="300" y="215.5" width="89" height="43" as="geometry" />
        </mxCell>
        <mxCell id="mv5QSTBgRpdjpKBlADj9-35" value="" style="endArrow=classic;html=1;" parent="1" edge="1">
          <mxGeometry width="50" height="50" relative="1" as="geometry">
            <mxPoint x="480.5" y="178" as="sourcePoint" />
            <mxPoint x="481" y="214" as="targetPoint" />
          </mxGeometry>
        </mxCell>
        <mxCell id="mv5QSTBgRpdjpKBlADj9-36" value="工事・プロジェクト作成" style="rounded=1;whiteSpace=wrap;html=1;fillColor=#B6EBE1;" parent="1" vertex="1">
          <mxGeometry x="437" y="214.5" width="89" height="43" as="geometry" />
        </mxCell>
        <mxCell id="mv5QSTBgRpdjpKBlADj9-37" value="" style="endArrow=classic;html=1;" parent="1" edge="1">
          <mxGeometry width="50" height="50" relative="1" as="geometry">
            <mxPoint x="753.5" y="179" as="sourcePoint" />
            <mxPoint x="754" y="215" as="targetPoint" />
          </mxGeometry>
        </mxCell>
        <mxCell id="mv5QSTBgRpdjpKBlADj9-38" value="見積承認" style="rounded=1;whiteSpace=wrap;html=1;fillColor=#B6EBE1;" parent="1" vertex="1">
          <mxGeometry x="570" y="384.5" width="89" height="43" as="geometry" />
        </mxCell>
        <mxCell id="mv5QSTBgRpdjpKBlADj9-39" value="" style="shape=process;whiteSpace=wrap;html=1;backgroundOutline=1;size=0.3349875930521092;fillColor=none;strokeColor=#B3B3B3;" parent="1" vertex="1">
          <mxGeometry x="814" y="125.5" width="402" height="4319.5" as="geometry" />
        </mxCell>
        <mxCell id="mv5QSTBgRpdjpKBlADj9-40" value="現場担当" style="rounded=0;whiteSpace=wrap;html=1;" parent="1" vertex="1">
          <mxGeometry x="815" y="65.5" width="135" height="60" as="geometry" />
        </mxCell>
        <mxCell id="mv5QSTBgRpdjpKBlADj9-41" value="平野部長" style="rounded=0;whiteSpace=wrap;html=1;" parent="1" vertex="1">
          <mxGeometry x="950" y="65.5" width="135" height="60" as="geometry" />
        </mxCell>
        <mxCell id="mv5QSTBgRpdjpKBlADj9-42" value="高田取締役" style="rounded=0;whiteSpace=wrap;html=1;" parent="1" vertex="1">
          <mxGeometry x="1083" y="65.5" width="135" height="60" as="geometry" />
        </mxCell>
        <mxCell id="evgMNFWdpNjPDC0drzfe-28" value="" style="edgeStyle=orthogonalEdgeStyle;rounded=1;orthogonalLoop=1;jettySize=auto;html=1;" parent="1" target="mv5QSTBgRpdjpKBlADj9-65" edge="1">
          <mxGeometry relative="1" as="geometry">
            <mxPoint x="883" y="180" as="sourcePoint" />
          </mxGeometry>
        </mxCell>
        <mxCell id="mv5QSTBgRpdjpKBlADj9-44" value="現場担当" style="rounded=0;whiteSpace=wrap;html=1;strokeColor=#B3B3B3;" parent="1" vertex="1">
          <mxGeometry x="814" y="65.5" width="135" height="60" as="geometry" />
        </mxCell>
        <mxCell id="mv5QSTBgRpdjpKBlADj9-45" value="平野部長" style="rounded=0;whiteSpace=wrap;html=1;strokeColor=#B3B3B3;" parent="1" vertex="1">
          <mxGeometry x="949" y="65.5" width="135" height="60" as="geometry" />
        </mxCell>
        <mxCell id="mv5QSTBgRpdjpKBlADj9-46" value="高田取締役" style="rounded=0;whiteSpace=wrap;html=1;" parent="1" vertex="1">
          <mxGeometry x="1082" y="65.5" width="135" height="60" as="geometry" />
        </mxCell>
        <mxCell id="mv5QSTBgRpdjpKBlADj9-47" value="" style="shape=process;whiteSpace=wrap;html=1;backgroundOutline=1;size=0.3349875930521092;strokeColor=#B3B3B3;fillColor=none;" parent="1" vertex="1">
          <mxGeometry x="1081" y="125.5" width="403" height="4319.5" as="geometry" />
        </mxCell>
        <mxCell id="mv5QSTBgRpdjpKBlADj9-48" value="高田取締役" style="rounded=0;whiteSpace=wrap;html=1;strokeColor=#B3B3B3;" parent="1" vertex="1">
          <mxGeometry x="1081.1666666666667" y="65.5" width="135" height="60" as="geometry" />
        </mxCell>
        <mxCell id="mv5QSTBgRpdjpKBlADj9-49" value="大塚社長" style="rounded=0;whiteSpace=wrap;html=1;strokeColor=#B3B3B3;" parent="1" vertex="1">
          <mxGeometry x="1216.17" y="65.5" width="133.83" height="60" as="geometry" />
        </mxCell>
        <mxCell id="mv5QSTBgRpdjpKBlADj9-50" value="会長・社長" style="rounded=0;whiteSpace=wrap;html=1;strokeColor=#B3B3B3;" parent="1" vertex="1">
          <mxGeometry x="1349.1666666666667" y="65.5" width="135" height="60" as="geometry" />
        </mxCell>
        <mxCell id="evgMNFWdpNjPDC0drzfe-34" style="edgeStyle=orthogonalEdgeStyle;rounded=1;orthogonalLoop=1;jettySize=auto;html=1;entryX=0.5;entryY=0;entryDx=0;entryDy=0;" parent="1" source="mv5QSTBgRpdjpKBlADj9-51" target="mv5QSTBgRpdjpKBlADj9-52" edge="1">
          <mxGeometry relative="1" as="geometry" />
        </mxCell>
        <mxCell id="mv5QSTBgRpdjpKBlADj9-51" value="&lt;div&gt;④商談&lt;br&gt;&lt;/div&gt;" style="rounded=1;whiteSpace=wrap;html=1;fillColor=#FFB570;" parent="1" vertex="1">
          <mxGeometry x="19" y="1150" width="117" height="43" as="geometry" />
        </mxCell>
        <mxCell id="8Lsw9yTCtssHRGtylrge-8" style="edgeStyle=orthogonalEdgeStyle;rounded=1;orthogonalLoop=1;jettySize=auto;html=1;entryX=0.5;entryY=0;entryDx=0;entryDy=0;" parent="1" source="mv5QSTBgRpdjpKBlADj9-52" target="8Lsw9yTCtssHRGtylrge-6" edge="1">
          <mxGeometry relative="1" as="geometry" />
        </mxCell>
        <mxCell id="evgMNFWdpNjPDC0drzfe-35" style="edgeStyle=orthogonalEdgeStyle;rounded=1;orthogonalLoop=1;jettySize=auto;html=1;entryX=0.5;entryY=0;entryDx=0;entryDy=0;" parent="1" source="mv5QSTBgRpdjpKBlADj9-52" target="mv5QSTBgRpdjpKBlADj9-53" edge="1">
          <mxGeometry relative="1" as="geometry" />
        </mxCell>
        <mxCell id="mv5QSTBgRpdjpKBlADj9-52" value="&lt;div&gt;⑤受注&lt;br&gt;&lt;/div&gt;" style="rounded=1;whiteSpace=wrap;html=1;fillColor=#FFB570;" parent="1" vertex="1">
          <mxGeometry x="19" y="1220" width="117" height="43" as="geometry" />
        </mxCell>
        <mxCell id="evgMNFWdpNjPDC0drzfe-5" style="edgeStyle=orthogonalEdgeStyle;rounded=1;orthogonalLoop=1;jettySize=auto;html=1;entryX=0;entryY=0.5;entryDx=0;entryDy=0;" parent="1" source="mv5QSTBgRpdjpKBlADj9-53" target="evgMNFWdpNjPDC0drzfe-2" edge="1">
          <mxGeometry relative="1" as="geometry" />
        </mxCell>
        <mxCell id="evgMNFWdpNjPDC0drzfe-36" style="edgeStyle=orthogonalEdgeStyle;rounded=1;orthogonalLoop=1;jettySize=auto;html=1;entryX=0.5;entryY=0;entryDx=0;entryDy=0;" parent="1" source="mv5QSTBgRpdjpKBlADj9-53" target="evgMNFWdpNjPDC0drzfe-7" edge="1">
          <mxGeometry relative="1" as="geometry">
            <Array as="points">
              <mxPoint x="280" y="1462" />
              <mxPoint x="280" y="1520" />
              <mxPoint x="345" y="1520" />
            </Array>
          </mxGeometry>
        </mxCell>
        <mxCell id="evgMNFWdpNjPDC0drzfe-37" style="edgeStyle=orthogonalEdgeStyle;rounded=1;orthogonalLoop=1;jettySize=auto;html=1;" parent="1" source="mv5QSTBgRpdjpKBlADj9-53" target="evgMNFWdpNjPDC0drzfe-8" edge="1">
          <mxGeometry relative="1" as="geometry">
            <Array as="points">
              <mxPoint x="280" y="1462" />
              <mxPoint x="280" y="1520" />
              <mxPoint x="480" y="1520" />
            </Array>
          </mxGeometry>
        </mxCell>
        <mxCell id="evgMNFWdpNjPDC0drzfe-38" style="edgeStyle=orthogonalEdgeStyle;rounded=1;orthogonalLoop=1;jettySize=auto;html=1;entryX=0.5;entryY=0;entryDx=0;entryDy=0;" parent="1" source="mv5QSTBgRpdjpKBlADj9-53" target="evgMNFWdpNjPDC0drzfe-9" edge="1">
          <mxGeometry relative="1" as="geometry">
            <Array as="points">
              <mxPoint x="280" y="1462" />
              <mxPoint x="280" y="1520" />
              <mxPoint x="748" y="1520" />
            </Array>
          </mxGeometry>
        </mxCell>
        <mxCell id="evgMNFWdpNjPDC0drzfe-39" style="edgeStyle=orthogonalEdgeStyle;rounded=1;orthogonalLoop=1;jettySize=auto;html=1;entryX=0.5;entryY=0;entryDx=0;entryDy=0;" parent="1" source="mv5QSTBgRpdjpKBlADj9-53" target="evgMNFWdpNjPDC0drzfe-10" edge="1">
          <mxGeometry relative="1" as="geometry">
            <Array as="points">
              <mxPoint x="280" y="1462" />
              <mxPoint x="280" y="1520" />
              <mxPoint x="885" y="1520" />
            </Array>
          </mxGeometry>
        </mxCell>
        <mxCell id="evgMNFWdpNjPDC0drzfe-59" style="edgeStyle=orthogonalEdgeStyle;rounded=1;orthogonalLoop=1;jettySize=auto;html=1;entryX=0.5;entryY=0;entryDx=0;entryDy=0;" parent="1" source="mv5QSTBgRpdjpKBlADj9-53" target="mv5QSTBgRpdjpKBlADj9-54" edge="1">
          <mxGeometry relative="1" as="geometry">
            <Array as="points">
              <mxPoint x="75" y="1690" />
              <mxPoint x="75" y="1690" />
            </Array>
          </mxGeometry>
        </mxCell>
        <mxCell id="mv5QSTBgRpdjpKBlADj9-53" value="&lt;div&gt;&lt;div&gt;⑥協力会社への発注&lt;/div&gt;&lt;div&gt;（実行予算書に基づいて）&lt;/div&gt;&lt;/div&gt;" style="rounded=1;whiteSpace=wrap;html=1;fillColor=#FFB570;" parent="1" vertex="1">
          <mxGeometry x="19" y="1428" width="117" height="67" as="geometry" />
        </mxCell>
        <mxCell id="evgMNFWdpNjPDC0drzfe-60" style="edgeStyle=orthogonalEdgeStyle;rounded=1;orthogonalLoop=1;jettySize=auto;html=1;entryX=0.5;entryY=0;entryDx=0;entryDy=0;" parent="1" source="mv5QSTBgRpdjpKBlADj9-54" target="mv5QSTBgRpdjpKBlADj9-55" edge="1">
          <mxGeometry relative="1" as="geometry" />
        </mxCell>
        <mxCell id="mv5QSTBgRpdjpKBlADj9-54" value="&lt;div&gt;⑦施工&lt;br&gt;&lt;/div&gt;" style="rounded=1;whiteSpace=wrap;html=1;fillColor=#FFB570;" parent="1" vertex="1">
          <mxGeometry x="16" y="2077" width="117" height="43" as="geometry" />
        </mxCell>
        <mxCell id="evgMNFWdpNjPDC0drzfe-61" style="edgeStyle=orthogonalEdgeStyle;rounded=1;orthogonalLoop=1;jettySize=auto;html=1;entryX=0.5;entryY=0;entryDx=0;entryDy=0;" parent="1" source="mv5QSTBgRpdjpKBlADj9-55" target="mv5QSTBgRpdjpKBlADj9-32" edge="1">
          <mxGeometry relative="1" as="geometry" />
        </mxCell>
        <mxCell id="evgMNFWdpNjPDC0drzfe-63" style="edgeStyle=orthogonalEdgeStyle;rounded=1;orthogonalLoop=1;jettySize=auto;html=1;entryX=0.5;entryY=0;entryDx=0;entryDy=0;" parent="1" source="mv5QSTBgRpdjpKBlADj9-55" target="evgMNFWdpNjPDC0drzfe-62" edge="1">
          <mxGeometry relative="1" as="geometry" />
        </mxCell>
        <mxCell id="evgMNFWdpNjPDC0drzfe-109" style="edgeStyle=orthogonalEdgeStyle;rounded=1;orthogonalLoop=1;jettySize=auto;html=1;" parent="1" source="mv5QSTBgRpdjpKBlADj9-55" target="mv5QSTBgRpdjpKBlADj9-56" edge="1">
          <mxGeometry relative="1" as="geometry" />
        </mxCell>
        <mxCell id="evgMNFWdpNjPDC0drzfe-110" style="edgeStyle=orthogonalEdgeStyle;rounded=1;orthogonalLoop=1;jettySize=auto;html=1;entryX=0;entryY=0.5;entryDx=0;entryDy=0;" parent="1" source="mv5QSTBgRpdjpKBlADj9-55" target="evgMNFWdpNjPDC0drzfe-106" edge="1">
          <mxGeometry relative="1" as="geometry">
            <Array as="points">
              <mxPoint x="76" y="3070" />
            </Array>
          </mxGeometry>
        </mxCell>
        <mxCell id="mv5QSTBgRpdjpKBlADj9-55" value="&lt;div&gt;⑧出来高報告書&lt;br&gt;&lt;/div&gt;" style="rounded=1;whiteSpace=wrap;html=1;fillColor=#FFB570;" parent="1" vertex="1">
          <mxGeometry x="17" y="2355" width="117" height="43" as="geometry" />
        </mxCell>
        <mxCell id="evgMNFWdpNjPDC0drzfe-119" style="edgeStyle=orthogonalEdgeStyle;rounded=1;orthogonalLoop=1;jettySize=auto;html=1;exitX=1;exitY=0.5;exitDx=0;exitDy=0;entryX=0;entryY=0.5;entryDx=0;entryDy=0;" parent="1" source="mv5QSTBgRpdjpKBlADj9-56" target="evgMNFWdpNjPDC0drzfe-117" edge="1">
          <mxGeometry relative="1" as="geometry" />
        </mxCell>
        <mxCell id="evgMNFWdpNjPDC0drzfe-180" style="edgeStyle=orthogonalEdgeStyle;rounded=1;orthogonalLoop=1;jettySize=auto;html=1;exitX=0.5;exitY=1;exitDx=0;exitDy=0;entryX=0.5;entryY=0;entryDx=0;entryDy=0;" parent="1" source="mv5QSTBgRpdjpKBlADj9-56" target="mv5QSTBgRpdjpKBlADj9-57" edge="1">
          <mxGeometry relative="1" as="geometry" />
        </mxCell>
        <mxCell id="mv5QSTBgRpdjpKBlADj9-56" value="&lt;div&gt;⑨買掛金の支払&lt;br&gt;&lt;/div&gt;" style="rounded=1;whiteSpace=wrap;html=1;fillColor=#FFB570;" parent="1" vertex="1">
          <mxGeometry x="17" y="3256" width="117" height="43" as="geometry" />
        </mxCell>
        <mxCell id="evgMNFWdpNjPDC0drzfe-126" style="edgeStyle=orthogonalEdgeStyle;rounded=1;orthogonalLoop=1;jettySize=auto;html=1;entryX=0.5;entryY=0;entryDx=0;entryDy=0;" parent="1" source="mv5QSTBgRpdjpKBlADj9-57" target="evgMNFWdpNjPDC0drzfe-122" edge="1">
          <mxGeometry relative="1" as="geometry" />
        </mxCell>
        <mxCell id="evgMNFWdpNjPDC0drzfe-138" style="edgeStyle=orthogonalEdgeStyle;rounded=1;orthogonalLoop=1;jettySize=auto;html=1;entryX=0.5;entryY=0;entryDx=0;entryDy=0;" parent="1" source="mv5QSTBgRpdjpKBlADj9-57" target="evgMNFWdpNjPDC0drzfe-134" edge="1">
          <mxGeometry relative="1" as="geometry" />
        </mxCell>
        <mxCell id="evgMNFWdpNjPDC0drzfe-181" style="edgeStyle=orthogonalEdgeStyle;rounded=1;orthogonalLoop=1;jettySize=auto;html=1;entryX=0.5;entryY=0;entryDx=0;entryDy=0;" parent="1" source="mv5QSTBgRpdjpKBlADj9-57" target="mv5QSTBgRpdjpKBlADj9-58" edge="1">
          <mxGeometry relative="1" as="geometry" />
        </mxCell>
        <mxCell id="mv5QSTBgRpdjpKBlADj9-57" value="&lt;div&gt;⑩お客様への検収・請求&lt;br&gt;&lt;/div&gt;" style="rounded=1;whiteSpace=wrap;html=1;fillColor=#FFB570;" parent="1" vertex="1">
          <mxGeometry x="17" y="3405" width="117" height="43" as="geometry" />
        </mxCell>
        <mxCell id="evgMNFWdpNjPDC0drzfe-146" style="edgeStyle=orthogonalEdgeStyle;rounded=1;orthogonalLoop=1;jettySize=auto;html=1;entryX=0.5;entryY=0;entryDx=0;entryDy=0;" parent="1" source="mv5QSTBgRpdjpKBlADj9-58" target="evgMNFWdpNjPDC0drzfe-145" edge="1">
          <mxGeometry relative="1" as="geometry" />
        </mxCell>
        <mxCell id="evgMNFWdpNjPDC0drzfe-165" style="edgeStyle=orthogonalEdgeStyle;rounded=1;orthogonalLoop=1;jettySize=auto;html=1;entryX=0.5;entryY=0;entryDx=0;entryDy=0;" parent="1" source="mv5QSTBgRpdjpKBlADj9-58" target="evgMNFWdpNjPDC0drzfe-157" edge="1">
          <mxGeometry relative="1" as="geometry" />
        </mxCell>
        <mxCell id="evgMNFWdpNjPDC0drzfe-182" style="edgeStyle=orthogonalEdgeStyle;rounded=1;orthogonalLoop=1;jettySize=auto;html=1;exitX=0.5;exitY=1;exitDx=0;exitDy=0;entryX=0.5;entryY=0;entryDx=0;entryDy=0;" parent="1" source="mv5QSTBgRpdjpKBlADj9-58" target="mv5QSTBgRpdjpKBlADj9-59" edge="1">
          <mxGeometry relative="1" as="geometry" />
        </mxCell>
        <mxCell id="mv5QSTBgRpdjpKBlADj9-58" value="&lt;div&gt;⑪施工完了・請求&lt;br&gt;&lt;/div&gt;" style="rounded=1;whiteSpace=wrap;html=1;fillColor=#FFB570;" parent="1" vertex="1">
          <mxGeometry x="17" y="3700" width="117" height="43" as="geometry" />
        </mxCell>
        <mxCell id="evgMNFWdpNjPDC0drzfe-178" style="edgeStyle=orthogonalEdgeStyle;rounded=1;orthogonalLoop=1;jettySize=auto;html=1;entryX=0.5;entryY=0;entryDx=0;entryDy=0;" parent="1" source="mv5QSTBgRpdjpKBlADj9-59" target="evgMNFWdpNjPDC0drzfe-176" edge="1">
          <mxGeometry relative="1" as="geometry">
            <Array as="points">
              <mxPoint x="211" y="4227" />
            </Array>
          </mxGeometry>
        </mxCell>
        <mxCell id="evgMNFWdpNjPDC0drzfe-183" style="edgeStyle=orthogonalEdgeStyle;rounded=1;orthogonalLoop=1;jettySize=auto;html=1;entryX=0.5;entryY=0;entryDx=0;entryDy=0;" parent="1" source="mv5QSTBgRpdjpKBlADj9-59" target="mv5QSTBgRpdjpKBlADj9-25" edge="1">
          <mxGeometry relative="1" as="geometry" />
        </mxCell>
        <mxCell id="mv5QSTBgRpdjpKBlADj9-59" value="&lt;div&gt;&lt;div&gt;⑫入金・チェック&lt;/div&gt;&lt;div&gt;（経理部門）&lt;/div&gt;&lt;/div&gt;" style="rounded=1;whiteSpace=wrap;html=1;fillColor=#FFB570;" parent="1" vertex="1">
          <mxGeometry x="17" y="4205" width="117" height="43" as="geometry" />
        </mxCell>
        <mxCell id="mv5QSTBgRpdjpKBlADj9-60" value="&lt;div&gt;仕入先へ&lt;/div&gt;&lt;div&gt;見積依頼&lt;/div&gt;" style="rounded=1;whiteSpace=wrap;html=1;fillColor=#B6EBE1;" parent="1" vertex="1">
          <mxGeometry x="435" y="283" width="89" height="43" as="geometry" />
        </mxCell>
        <mxCell id="mv5QSTBgRpdjpKBlADj9-61" style="edgeStyle=orthogonalEdgeStyle;rounded=1;orthogonalLoop=1;jettySize=auto;html=1;entryX=0.515;entryY=1.016;entryDx=0;entryDy=0;entryPerimeter=0;startArrow=classicThin;startFill=1;endArrow=none;endFill=0;exitX=0.488;exitY=0.029;exitDx=0;exitDy=0;exitPerimeter=0;" parent="1" edge="1">
          <mxGeometry relative="1" as="geometry">
            <mxPoint x="344.3529411764707" y="456.8823529411766" as="sourcePoint" />
            <mxPoint x="1284.3529411764707" y="427.47058823529414" as="targetPoint" />
            <Array as="points">
              <mxPoint x="344" y="440.5" />
              <mxPoint x="1285" y="440.5" />
            </Array>
          </mxGeometry>
        </mxCell>
        <mxCell id="mv5QSTBgRpdjpKBlADj9-62" value="&lt;div&gt;Excelフリーにて&lt;/div&gt;&lt;div&gt;請負契約書（案）作成&lt;/div&gt;" style="rounded=1;whiteSpace=wrap;html=1;fillColor=#9AC7BF;" parent="1" vertex="1">
          <mxGeometry x="292" y="454.5" width="107" height="55" as="geometry" />
        </mxCell>
        <mxCell id="mv5QSTBgRpdjpKBlADj9-63" value="見積作成" style="rounded=1;whiteSpace=wrap;html=1;fillColor=#B6EBE1;" parent="1" vertex="1">
          <mxGeometry x="437" y="351" width="89" height="43" as="geometry" />
        </mxCell>
        <mxCell id="mv5QSTBgRpdjpKBlADj9-64" value="" style="endArrow=classic;html=1;" parent="1" edge="1">
          <mxGeometry width="50" height="50" relative="1" as="geometry">
            <mxPoint x="345" y="259.5" as="sourcePoint" />
            <mxPoint x="481" y="268.5" as="targetPoint" />
            <Array as="points">
              <mxPoint x="345" y="268.5" />
              <mxPoint x="413" y="268.5" />
            </Array>
          </mxGeometry>
        </mxCell>
        <mxCell id="mv5QSTBgRpdjpKBlADj9-65" value="工事・プロジェクト作成" style="rounded=1;whiteSpace=wrap;html=1;fillColor=#B6EBE1;" parent="1" vertex="1">
          <mxGeometry x="838" y="215.5" width="89" height="43" as="geometry" />
        </mxCell>
        <mxCell id="mv5QSTBgRpdjpKBlADj9-66" value="" style="edgeStyle=orthogonalEdgeStyle;rounded=0;orthogonalLoop=1;jettySize=auto;html=1;" parent="1" source="mv5QSTBgRpdjpKBlADj9-11" target="mv5QSTBgRpdjpKBlADj9-65" edge="1">
          <mxGeometry relative="1" as="geometry">
            <mxPoint x="882" y="224.5" as="targetPoint" />
            <Array as="points">
              <mxPoint x="882" y="179.5" />
            </Array>
          </mxGeometry>
        </mxCell>
        <mxCell id="mv5QSTBgRpdjpKBlADj9-67" value="" style="endArrow=classic;html=1;exitX=0.468;exitY=1.022;exitDx=0;exitDy=0;exitPerimeter=0;" parent="1" edge="1">
          <mxGeometry width="50" height="50" relative="1" as="geometry">
            <mxPoint x="480.6519999999998" y="258.4459999999999" as="sourcePoint" />
            <mxPoint x="481.1041169062403" y="283" as="targetPoint" />
          </mxGeometry>
        </mxCell>
        <mxCell id="mv5QSTBgRpdjpKBlADj9-68" value="" style="endArrow=classic;html=1;entryX=0.476;entryY=0.012;entryDx=0;entryDy=0;entryPerimeter=0;" parent="1" edge="1">
          <mxGeometry width="50" height="50" relative="1" as="geometry">
            <mxPoint x="481" y="326.5" as="sourcePoint" />
            <mxPoint x="481.36400000000003" y="351.5160000000001" as="targetPoint" />
          </mxGeometry>
        </mxCell>
        <mxCell id="mv5QSTBgRpdjpKBlADj9-69" value="" style="endArrow=classic;html=1;entryX=0.004;entryY=0.532;entryDx=0;entryDy=0;entryPerimeter=0;" parent="1" target="mv5QSTBgRpdjpKBlADj9-38" edge="1">
          <mxGeometry width="50" height="50" relative="1" as="geometry">
            <mxPoint x="481.5" y="393" as="sourcePoint" />
            <mxPoint x="572" y="402.5" as="targetPoint" />
            <Array as="points">
              <mxPoint x="482" y="407.5" />
            </Array>
          </mxGeometry>
        </mxCell>
        <mxCell id="mv5QSTBgRpdjpKBlADj9-70" value="見積承認" style="rounded=1;whiteSpace=wrap;html=1;fillColor=#B6EBE1;" parent="1" vertex="1">
          <mxGeometry x="974.5" y="383" width="89" height="43" as="geometry" />
        </mxCell>
        <mxCell id="mv5QSTBgRpdjpKBlADj9-71" value="&lt;div&gt;仕入先へ&lt;/div&gt;&lt;div&gt;見積依頼&lt;/div&gt;" style="rounded=1;whiteSpace=wrap;html=1;fillColor=#B6EBE1;" parent="1" vertex="1">
          <mxGeometry x="838.5" y="283" width="89" height="43" as="geometry" />
        </mxCell>
        <mxCell id="mv5QSTBgRpdjpKBlADj9-72" value="見積作成" style="rounded=1;whiteSpace=wrap;html=1;fillColor=#B6EBE1;" parent="1" vertex="1">
          <mxGeometry x="840.5" y="348" width="89" height="43" as="geometry" />
        </mxCell>
        <mxCell id="mv5QSTBgRpdjpKBlADj9-73" value="" style="endArrow=classic;html=1;" parent="1" source="mv5QSTBgRpdjpKBlADj9-12" edge="1">
          <mxGeometry width="50" height="50" relative="1" as="geometry">
            <mxPoint x="755.5" y="259.5" as="sourcePoint" />
            <mxPoint x="885" y="269" as="targetPoint" />
            <Array as="points">
              <mxPoint x="755.5" y="268.5" />
              <mxPoint x="823.5" y="268.5" />
              <mxPoint x="885" y="269" />
            </Array>
          </mxGeometry>
        </mxCell>
        <mxCell id="mv5QSTBgRpdjpKBlADj9-74" value="" style="endArrow=classic;html=1;exitX=0.468;exitY=1.022;exitDx=0;exitDy=0;exitPerimeter=0;" parent="1" edge="1">
          <mxGeometry width="50" height="50" relative="1" as="geometry">
            <mxPoint x="884.152" y="258.4459999999999" as="sourcePoint" />
            <mxPoint x="884.60411690624" y="283" as="targetPoint" />
          </mxGeometry>
        </mxCell>
        <mxCell id="mv5QSTBgRpdjpKBlADj9-75" value="" style="endArrow=classic;html=1;" parent="1" target="mv5QSTBgRpdjpKBlADj9-72" edge="1">
          <mxGeometry width="50" height="50" relative="1" as="geometry">
            <mxPoint x="884.5" y="326.5" as="sourcePoint" />
            <mxPoint x="885" y="346.5" as="targetPoint" />
          </mxGeometry>
        </mxCell>
        <mxCell id="mv5QSTBgRpdjpKBlADj9-76" value="" style="endArrow=classic;html=1;exitX=0.498;exitY=0.98;exitDx=0;exitDy=0;exitPerimeter=0;" parent="1" source="mv5QSTBgRpdjpKBlADj9-72" edge="1">
          <mxGeometry width="50" height="50" relative="1" as="geometry">
            <mxPoint x="892" y="393" as="sourcePoint" />
            <mxPoint x="974.5" y="406.5" as="targetPoint" />
            <Array as="points">
              <mxPoint x="885" y="407" />
            </Array>
          </mxGeometry>
        </mxCell>
        <mxCell id="mv5QSTBgRpdjpKBlADj9-77" value="" style="edgeStyle=orthogonalEdgeStyle;rounded=0;orthogonalLoop=1;jettySize=auto;html=1;" parent="1" edge="1">
          <mxGeometry relative="1" as="geometry">
            <mxPoint x="974.5" y="406.5" as="targetPoint" />
            <mxPoint x="660" y="406.5" as="sourcePoint" />
          </mxGeometry>
        </mxCell>
        <mxCell id="mv5QSTBgRpdjpKBlADj9-78" value="&lt;div&gt;見積承認&lt;/div&gt;&lt;div&gt;（稟議書）&lt;/div&gt;" style="rounded=1;whiteSpace=wrap;html=1;fillColor=#B6EBE1;" parent="1" vertex="1">
          <mxGeometry x="1105" y="383" width="89" height="43" as="geometry" />
        </mxCell>
        <mxCell id="mv5QSTBgRpdjpKBlADj9-79" value="&lt;div&gt;見積承認&lt;/div&gt;&lt;div&gt;（稟議書）&lt;/div&gt;" style="rounded=1;whiteSpace=wrap;html=1;fillColor=#B6EBE1;" parent="1" vertex="1">
          <mxGeometry x="1239" y="383" width="89" height="43" as="geometry" />
        </mxCell>
        <mxCell id="mv5QSTBgRpdjpKBlADj9-80" value="&lt;div&gt;見積承認&lt;/div&gt;&lt;div&gt;（稟議書）&lt;/div&gt;" style="rounded=1;whiteSpace=wrap;html=1;dashed=1;fillColor=#B6EBE1;" parent="1" vertex="1">
          <mxGeometry x="1373" y="383" width="89" height="43" as="geometry" />
        </mxCell>
        <mxCell id="mv5QSTBgRpdjpKBlADj9-81" value="" style="endArrow=classic;html=1;exitX=0.992;exitY=0.519;exitDx=0;exitDy=0;exitPerimeter=0;" parent="1" source="mv5QSTBgRpdjpKBlADj9-70" edge="1">
          <mxGeometry width="50" height="50" relative="1" as="geometry">
            <mxPoint x="1035" y="336.5" as="sourcePoint" />
            <mxPoint x="1108" y="404.5" as="targetPoint" />
            <Array as="points">
              <mxPoint x="1108" y="404.5" />
            </Array>
          </mxGeometry>
        </mxCell>
        <mxCell id="mv5QSTBgRpdjpKBlADj9-82" value="" style="endArrow=classic;html=1;" parent="1" edge="1">
          <mxGeometry width="50" height="50" relative="1" as="geometry">
            <mxPoint x="1194.9999999999995" y="405.5" as="sourcePoint" />
            <mxPoint x="1240.5" y="405.5" as="targetPoint" />
            <Array as="points">
              <mxPoint x="1240.5" y="405.5" />
            </Array>
          </mxGeometry>
        </mxCell>
        <mxCell id="mv5QSTBgRpdjpKBlADj9-83" value="" style="endArrow=none;html=1;exitX=0.992;exitY=0.519;exitDx=0;exitDy=0;exitPerimeter=0;endFill=0;" parent="1" edge="1">
          <mxGeometry width="50" height="50" relative="1" as="geometry">
            <mxPoint x="1329.788" y="405.3169999999998" as="sourcePoint" />
            <mxPoint x="1374.9999999999995" y="404.5" as="targetPoint" />
            <Array as="points" />
          </mxGeometry>
        </mxCell>
        <mxCell id="mv5QSTBgRpdjpKBlADj9-84" value="&lt;div&gt;Excelフリーにて&lt;/div&gt;&lt;div&gt;請負契約書（案）作成&lt;/div&gt;" style="rounded=1;whiteSpace=wrap;html=1;fillColor=#9AC7BF;" parent="1" vertex="1">
          <mxGeometry x="695" y="454.5" width="107" height="57" as="geometry" />
        </mxCell>
        <mxCell id="mv5QSTBgRpdjpKBlADj9-85" value="&lt;div&gt;先方へ請負契約書（案）&lt;/div&gt;&lt;div&gt;提出・承諾を得る&lt;/div&gt;" style="rounded=1;whiteSpace=wrap;html=1;fillColor=#9AC7BF;" parent="1" vertex="1">
          <mxGeometry x="560" y="540" width="107" height="55" as="geometry" />
        </mxCell>
        <mxCell id="mv5QSTBgRpdjpKBlADj9-86" value="" style="endArrow=classic;html=1;entryX=0.5;entryY=0;entryDx=0;entryDy=0;entryPerimeter=0;" parent="1" target="mv5QSTBgRpdjpKBlADj9-85" edge="1">
          <mxGeometry width="50" height="50" relative="1" as="geometry">
            <mxPoint x="344" y="509.5" as="sourcePoint" />
            <mxPoint x="563" y="522.3933823529412" as="targetPoint" />
            <Array as="points">
              <mxPoint x="344.5" y="524" />
              <mxPoint x="614" y="524" />
            </Array>
          </mxGeometry>
        </mxCell>
        <mxCell id="mv5QSTBgRpdjpKBlADj9-87" value="&lt;div&gt;先方へ請負契約書（案）&lt;/div&gt;&lt;div&gt;提出・承諾を得る&lt;/div&gt;" style="rounded=1;whiteSpace=wrap;html=1;fillColor=#9AC7BF;" parent="1" vertex="1">
          <mxGeometry x="828.5" y="540" width="107" height="55" as="geometry" />
        </mxCell>
        <mxCell id="mv5QSTBgRpdjpKBlADj9-88" value="" style="endArrow=classic;html=1;entryX=0.494;entryY=-0.009;entryDx=0;entryDy=0;entryPerimeter=0;" parent="1" target="mv5QSTBgRpdjpKBlADj9-87" edge="1">
          <mxGeometry width="50" height="50" relative="1" as="geometry">
            <mxPoint x="751" y="510.5" as="sourcePoint" />
            <mxPoint x="970" y="523.3933823529412" as="targetPoint" />
            <Array as="points">
              <mxPoint x="751.5" y="525" />
              <mxPoint x="881" y="525" />
            </Array>
          </mxGeometry>
        </mxCell>
        <mxCell id="mv5QSTBgRpdjpKBlADj9-89" style="edgeStyle=orthogonalEdgeStyle;rounded=1;orthogonalLoop=1;jettySize=auto;html=1;entryX=0.523;entryY=1;entryDx=0;entryDy=0;entryPerimeter=0;startArrow=classicThin;startFill=1;endArrow=none;endFill=0;exitX=0.477;exitY=0.021;exitDx=0;exitDy=0;exitPerimeter=0;" parent="1" edge="1">
          <mxGeometry relative="1" as="geometry">
            <mxPoint x="745.5294117647059" y="454.52941176470586" as="sourcePoint" />
            <mxPoint x="1284.3529411764707" y="425.11764705882365" as="targetPoint" />
            <Array as="points">
              <mxPoint x="746" y="440" />
              <mxPoint x="1285" y="440" />
            </Array>
          </mxGeometry>
        </mxCell>
        <mxCell id="mv5QSTBgRpdjpKBlADj9-147" style="edgeStyle=orthogonalEdgeStyle;rounded=1;orthogonalLoop=1;jettySize=auto;html=1;entryX=0.5;entryY=0;entryDx=0;entryDy=0;" parent="1" source="mv5QSTBgRpdjpKBlADj9-90" target="mv5QSTBgRpdjpKBlADj9-94" edge="1">
          <mxGeometry relative="1" as="geometry">
            <Array as="points">
              <mxPoint x="480" y="680" />
              <mxPoint x="614" y="680" />
            </Array>
          </mxGeometry>
        </mxCell>
        <mxCell id="mv5QSTBgRpdjpKBlADj9-90" value="&lt;div&gt;見積書から予算表&lt;/div&gt;&lt;div&gt;作成（転記）&lt;/div&gt;" style="rounded=1;whiteSpace=wrap;html=1;fillColor=#D5E8D4;" parent="1" vertex="1">
          <mxGeometry x="426.5" y="616.5" width="107" height="55" as="geometry" />
        </mxCell>
        <mxCell id="mv5QSTBgRpdjpKBlADj9-91" value="&lt;div&gt;見積書から予算表&lt;/div&gt;&lt;div&gt;作成（転記）&lt;/div&gt;" style="rounded=1;whiteSpace=wrap;html=1;fillColor=#D5E8D4;" parent="1" vertex="1">
          <mxGeometry x="828.5" y="616.5" width="107" height="55" as="geometry" />
        </mxCell>
        <mxCell id="mv5QSTBgRpdjpKBlADj9-145" style="edgeStyle=orthogonalEdgeStyle;rounded=1;orthogonalLoop=1;jettySize=auto;html=1;entryX=0.5;entryY=0;entryDx=0;entryDy=0;" parent="1" source="mv5QSTBgRpdjpKBlADj9-94" target="mv5QSTBgRpdjpKBlADj9-96" edge="1">
          <mxGeometry relative="1" as="geometry">
            <Array as="points">
              <mxPoint x="1150" y="710" />
            </Array>
          </mxGeometry>
        </mxCell>
        <mxCell id="mv5QSTBgRpdjpKBlADj9-94" value="予算承認" style="rounded=1;whiteSpace=wrap;html=1;fillColor=#D5E8D4;" parent="1" vertex="1">
          <mxGeometry x="567" y="692.5" width="94" height="43" as="geometry" />
        </mxCell>
        <mxCell id="mv5QSTBgRpdjpKBlADj9-146" style="edgeStyle=orthogonalEdgeStyle;rounded=1;orthogonalLoop=1;jettySize=auto;html=1;" parent="1" source="mv5QSTBgRpdjpKBlADj9-95" target="mv5QSTBgRpdjpKBlADj9-96" edge="1">
          <mxGeometry relative="1" as="geometry" />
        </mxCell>
        <mxCell id="mv5QSTBgRpdjpKBlADj9-95" value="予算承認" style="rounded=1;whiteSpace=wrap;html=1;fillColor=#D5E8D4;" parent="1" vertex="1">
          <mxGeometry x="966.5" y="723.5" width="94" height="43" as="geometry" />
        </mxCell>
        <mxCell id="mv5QSTBgRpdjpKBlADj9-96" value="予算承認" style="rounded=1;whiteSpace=wrap;html=1;fillColor=#D5E8D4;" parent="1" vertex="1">
          <mxGeometry x="1102.5" y="723.5" width="94" height="43" as="geometry" />
        </mxCell>
        <mxCell id="mv5QSTBgRpdjpKBlADj9-97" value="予算承認" style="rounded=1;whiteSpace=wrap;html=1;fillColor=#D5E8D4;" parent="1" vertex="1">
          <mxGeometry x="1239.5" y="723.5" width="94" height="43" as="geometry" />
        </mxCell>
        <mxCell id="mv5QSTBgRpdjpKBlADj9-99" value="" style="endArrow=classic;html=1;" parent="1" edge="1">
          <mxGeometry width="50" height="50" relative="1" as="geometry">
            <mxPoint x="1195.5" y="745.9999999999998" as="sourcePoint" />
            <mxPoint x="1241" y="745.9999999999998" as="targetPoint" />
            <Array as="points">
              <mxPoint x="1241" y="746" />
            </Array>
          </mxGeometry>
        </mxCell>
        <mxCell id="mv5QSTBgRpdjpKBlADj9-100" value="" style="endArrow=none;html=1;endFill=0;exitX=0.995;exitY=0.512;exitDx=0;exitDy=0;exitPerimeter=0;entryX=0.074;entryY=0.5;entryDx=0;entryDy=0;entryPerimeter=0;" parent="1" source="mv5QSTBgRpdjpKBlADj9-97" target="mv5QSTBgRpdjpKBlADj9-101" edge="1">
          <mxGeometry width="50" height="50" relative="1" as="geometry">
            <mxPoint x="1340" y="745" as="sourcePoint" />
            <mxPoint x="1370" y="745" as="targetPoint" />
            <Array as="points" />
          </mxGeometry>
        </mxCell>
        <mxCell id="mv5QSTBgRpdjpKBlADj9-101" value="予算承認" style="rounded=1;whiteSpace=wrap;html=1;fillColor=#D5E8D4;dashed=1;" parent="1" vertex="1">
          <mxGeometry x="1373" y="723.5" width="94" height="43" as="geometry" />
        </mxCell>
        <mxCell id="mv5QSTBgRpdjpKBlADj9-102" value="&lt;div&gt;（新規）&lt;/div&gt;&lt;div&gt;取引先登録依頼&lt;/div&gt;" style="rounded=1;whiteSpace=wrap;html=1;fillColor=#D5E8D4;" parent="1" vertex="1">
          <mxGeometry x="295" y="780" width="94" height="43" as="geometry" />
        </mxCell>
        <mxCell id="mv5QSTBgRpdjpKBlADj9-103" value="&lt;div&gt;（新規）&lt;/div&gt;&lt;div&gt;取引先登録依頼&lt;/div&gt;" style="rounded=1;whiteSpace=wrap;html=1;fillColor=#D5E8D4;" parent="1" vertex="1">
          <mxGeometry x="432" y="780" width="94" height="43" as="geometry" />
        </mxCell>
        <mxCell id="mv5QSTBgRpdjpKBlADj9-104" value="&lt;div&gt;（新規）&lt;/div&gt;&lt;div&gt;取引先登録依頼&lt;/div&gt;" style="rounded=1;whiteSpace=wrap;html=1;fillColor=#D5E8D4;" parent="1" vertex="1">
          <mxGeometry x="700" y="780" width="94" height="43" as="geometry" />
        </mxCell>
        <mxCell id="mv5QSTBgRpdjpKBlADj9-105" value="&lt;div&gt;（新規）&lt;/div&gt;&lt;div&gt;取引先登録依頼&lt;/div&gt;" style="rounded=1;whiteSpace=wrap;html=1;fillColor=#D5E8D4;" parent="1" vertex="1">
          <mxGeometry x="838" y="780" width="94" height="43" as="geometry" />
        </mxCell>
        <mxCell id="mv5QSTBgRpdjpKBlADj9-106" style="edgeStyle=orthogonalEdgeStyle;rounded=1;orthogonalLoop=1;jettySize=auto;html=1;entryX=0.518;entryY=0.995;entryDx=0;entryDy=0;entryPerimeter=0;startArrow=classicThin;startFill=1;endArrow=none;endFill=0;" parent="1" source="mv5QSTBgRpdjpKBlADj9-110" target="mv5QSTBgRpdjpKBlADj9-105" edge="1">
          <mxGeometry relative="1" as="geometry" />
        </mxCell>
        <mxCell id="mv5QSTBgRpdjpKBlADj9-107" style="edgeStyle=orthogonalEdgeStyle;rounded=1;orthogonalLoop=1;jettySize=auto;html=1;entryX=0.509;entryY=1.022;entryDx=0;entryDy=0;entryPerimeter=0;startArrow=classicThin;startFill=1;endArrow=none;endFill=0;" parent="1" source="mv5QSTBgRpdjpKBlADj9-110" target="mv5QSTBgRpdjpKBlADj9-104" edge="1">
          <mxGeometry relative="1" as="geometry" />
        </mxCell>
        <mxCell id="mv5QSTBgRpdjpKBlADj9-108" style="edgeStyle=orthogonalEdgeStyle;rounded=1;orthogonalLoop=1;jettySize=auto;html=1;entryX=0.494;entryY=0.995;entryDx=0;entryDy=0;entryPerimeter=0;startArrow=classicThin;startFill=1;endArrow=none;endFill=0;" parent="1" source="mv5QSTBgRpdjpKBlADj9-110" target="mv5QSTBgRpdjpKBlADj9-103" edge="1">
          <mxGeometry relative="1" as="geometry" />
        </mxCell>
        <mxCell id="mv5QSTBgRpdjpKBlADj9-109" style="edgeStyle=orthogonalEdgeStyle;rounded=1;orthogonalLoop=1;jettySize=auto;html=1;entryX=0.487;entryY=0.995;entryDx=0;entryDy=0;entryPerimeter=0;startArrow=classicThin;startFill=1;endArrow=none;endFill=0;" parent="1" source="mv5QSTBgRpdjpKBlADj9-110" target="mv5QSTBgRpdjpKBlADj9-102" edge="1">
          <mxGeometry relative="1" as="geometry" />
        </mxCell>
        <mxCell id="mv5QSTBgRpdjpKBlADj9-110" value="取引先登録" style="rounded=1;whiteSpace=wrap;html=1;fillColor=#D5E8D4;" parent="1" vertex="1">
          <mxGeometry x="164.5" y="844" width="94" height="43" as="geometry" />
        </mxCell>
        <mxCell id="mv5QSTBgRpdjpKBlADj9-111" style="edgeStyle=orthogonalEdgeStyle;rounded=1;orthogonalLoop=1;jettySize=auto;html=1;startArrow=classicThin;startFill=1;endArrow=none;endFill=0;" parent="1" source="mv5QSTBgRpdjpKBlADj9-113" target="mv5QSTBgRpdjpKBlADj9-97" edge="1">
          <mxGeometry relative="1" as="geometry">
            <mxPoint x="1290" y="740" as="targetPoint" />
            <Array as="points">
              <mxPoint x="346" y="890" />
              <mxPoint x="1290" y="890" />
            </Array>
          </mxGeometry>
        </mxCell>
        <mxCell id="mv5QSTBgRpdjpKBlADj9-112" style="edgeStyle=orthogonalEdgeStyle;rounded=1;orthogonalLoop=1;jettySize=auto;html=1;entryX=0.487;entryY=0.984;entryDx=0;entryDy=0;entryPerimeter=0;startArrow=classicThin;startFill=1;endArrow=none;endFill=0;" parent="1" source="mv5QSTBgRpdjpKBlADj9-113" target="mv5QSTBgRpdjpKBlADj9-110" edge="1">
          <mxGeometry relative="1" as="geometry" />
        </mxCell>
        <mxCell id="mv5QSTBgRpdjpKBlADj9-113" value="&lt;div&gt;見積印刷・&lt;/div&gt;&lt;div&gt;稟議書作成・&lt;/div&gt;&lt;div&gt;稟議書回覧&lt;/div&gt;" style="rounded=1;whiteSpace=wrap;html=1;fillColor=#D5E8D4;" parent="1" vertex="1">
          <mxGeometry x="298" y="910" width="94" height="50" as="geometry" />
        </mxCell>
        <mxCell id="mv5QSTBgRpdjpKBlADj9-114" style="edgeStyle=orthogonalEdgeStyle;rounded=1;orthogonalLoop=1;jettySize=auto;html=1;entryX=0.493;entryY=0.985;entryDx=0;entryDy=0;entryPerimeter=0;startArrow=classicThin;startFill=1;endArrow=none;endFill=0;" parent="1" source="mv5QSTBgRpdjpKBlADj9-115" target="mv5QSTBgRpdjpKBlADj9-113" edge="1">
          <mxGeometry relative="1" as="geometry" />
        </mxCell>
        <mxCell id="mv5QSTBgRpdjpKBlADj9-115" value="&lt;div&gt;稟議チェック・&lt;/div&gt;&lt;div&gt;担当印&lt;/div&gt;" style="rounded=1;whiteSpace=wrap;html=1;fillColor=#D5E8D4;" parent="1" vertex="1">
          <mxGeometry x="432" y="967.5" width="94" height="43" as="geometry" />
        </mxCell>
        <mxCell id="mv5QSTBgRpdjpKBlADj9-116" style="edgeStyle=orthogonalEdgeStyle;rounded=1;orthogonalLoop=1;jettySize=auto;html=1;startArrow=classicThin;startFill=1;endArrow=none;endFill=0;" parent="1" source="mv5QSTBgRpdjpKBlADj9-117" target="mv5QSTBgRpdjpKBlADj9-115" edge="1">
          <mxGeometry relative="1" as="geometry" />
        </mxCell>
        <mxCell id="mv5QSTBgRpdjpKBlADj9-117" value="稟議決裁" style="rounded=1;whiteSpace=wrap;html=1;fillColor=#D5E8D4;" parent="1" vertex="1">
          <mxGeometry x="570" y="967.5" width="94" height="43" as="geometry" />
        </mxCell>
        <mxCell id="mv5QSTBgRpdjpKBlADj9-118" style="edgeStyle=orthogonalEdgeStyle;rounded=1;orthogonalLoop=1;jettySize=auto;html=1;entryX=0.537;entryY=1.105;entryDx=0;entryDy=0;entryPerimeter=0;startArrow=classicThin;startFill=1;endArrow=none;endFill=0;" parent="1" source="mv5QSTBgRpdjpKBlADj9-119" target="mv5QSTBgRpdjpKBlADj9-97" edge="1">
          <mxGeometry relative="1" as="geometry">
            <Array as="points">
              <mxPoint x="740" y="890" />
              <mxPoint x="1290" y="890" />
            </Array>
          </mxGeometry>
        </mxCell>
        <mxCell id="mv5QSTBgRpdjpKBlADj9-119" value="&lt;div&gt;見積印刷・&lt;/div&gt;&lt;div&gt;稟議書作成・&lt;/div&gt;&lt;div&gt;稟議書回覧&lt;/div&gt;" style="rounded=1;whiteSpace=wrap;html=1;fillColor=#D5E8D4;" parent="1" vertex="1">
          <mxGeometry x="693" y="909.5" width="94" height="50" as="geometry" />
        </mxCell>
        <mxCell id="mv5QSTBgRpdjpKBlADj9-120" style="edgeStyle=orthogonalEdgeStyle;rounded=1;orthogonalLoop=1;jettySize=auto;html=1;entryX=0.484;entryY=0.995;entryDx=0;entryDy=0;entryPerimeter=0;startArrow=classicThin;startFill=1;endArrow=none;endFill=0;" parent="1" source="mv5QSTBgRpdjpKBlADj9-121" target="mv5QSTBgRpdjpKBlADj9-119" edge="1">
          <mxGeometry relative="1" as="geometry" />
        </mxCell>
        <mxCell id="mv5QSTBgRpdjpKBlADj9-121" value="&lt;div&gt;稟議チェック・&lt;/div&gt;&lt;div&gt;担当印&lt;/div&gt;" style="rounded=1;whiteSpace=wrap;html=1;fillColor=#D5E8D4;" parent="1" vertex="1">
          <mxGeometry x="827" y="967" width="94" height="43" as="geometry" />
        </mxCell>
        <mxCell id="mv5QSTBgRpdjpKBlADj9-122" style="edgeStyle=orthogonalEdgeStyle;rounded=1;orthogonalLoop=1;jettySize=auto;html=1;startArrow=classicThin;startFill=1;endArrow=none;endFill=0;" parent="1" source="mv5QSTBgRpdjpKBlADj9-123" target="mv5QSTBgRpdjpKBlADj9-121" edge="1">
          <mxGeometry relative="1" as="geometry" />
        </mxCell>
        <mxCell id="mv5QSTBgRpdjpKBlADj9-123" value="稟議決裁" style="rounded=1;whiteSpace=wrap;html=1;fillColor=#D5E8D4;" parent="1" vertex="1">
          <mxGeometry x="965" y="967" width="94" height="43" as="geometry" />
        </mxCell>
        <mxCell id="mv5QSTBgRpdjpKBlADj9-124" value="" style="endArrow=classic;html=1;exitX=0.992;exitY=0.519;exitDx=0;exitDy=0;exitPerimeter=0;" parent="1" edge="1">
          <mxGeometry width="50" height="50" relative="1" as="geometry">
            <mxPoint x="1061.288" y="989.8170000000002" as="sourcePoint" />
            <mxPoint x="1106.5" y="989" as="targetPoint" />
            <Array as="points">
              <mxPoint x="1106.5" y="989" />
            </Array>
          </mxGeometry>
        </mxCell>
        <mxCell id="mv5QSTBgRpdjpKBlADj9-125" value="稟議決裁" style="rounded=1;whiteSpace=wrap;html=1;fillColor=#D5E8D4;" parent="1" vertex="1">
          <mxGeometry x="1103.5" y="967.5" width="94" height="43" as="geometry" />
        </mxCell>
        <mxCell id="mv5QSTBgRpdjpKBlADj9-126" value="" style="endArrow=classic;html=1;" parent="1" edge="1">
          <mxGeometry width="50" height="50" relative="1" as="geometry">
            <mxPoint x="1196.5" y="990" as="sourcePoint" />
            <mxPoint x="1242" y="990" as="targetPoint" />
            <Array as="points">
              <mxPoint x="1242" y="990" />
            </Array>
          </mxGeometry>
        </mxCell>
        <mxCell id="mv5QSTBgRpdjpKBlADj9-127" value="&lt;div&gt;稟議決裁・&lt;/div&gt;&lt;div&gt;見積番号承認&lt;/div&gt;" style="rounded=1;whiteSpace=wrap;html=1;fillColor=#D5E8D4;" parent="1" vertex="1">
          <mxGeometry x="1240.5" y="967.5" width="94" height="43" as="geometry" />
        </mxCell>
        <mxCell id="mv5QSTBgRpdjpKBlADj9-128" value="" style="endArrow=none;html=1;endFill=0;exitX=0.995;exitY=0.512;exitDx=0;exitDy=0;exitPerimeter=0;entryX=0.074;entryY=0.5;entryDx=0;entryDy=0;entryPerimeter=0;" parent="1" source="mv5QSTBgRpdjpKBlADj9-127" target="mv5QSTBgRpdjpKBlADj9-129" edge="1">
          <mxGeometry width="50" height="50" relative="1" as="geometry">
            <mxPoint x="1341" y="989" as="sourcePoint" />
            <mxPoint x="1371" y="989" as="targetPoint" />
            <Array as="points" />
          </mxGeometry>
        </mxCell>
        <mxCell id="mv5QSTBgRpdjpKBlADj9-129" value="稟議決裁" style="rounded=1;whiteSpace=wrap;html=1;fillColor=#D5E8D4;dashed=1;" parent="1" vertex="1">
          <mxGeometry x="1374" y="967.5" width="94" height="43" as="geometry" />
        </mxCell>
        <mxCell id="mv5QSTBgRpdjpKBlADj9-130" style="edgeStyle=orthogonalEdgeStyle;rounded=1;orthogonalLoop=1;jettySize=auto;html=1;entryX=0.527;entryY=0.988;entryDx=0;entryDy=0;entryPerimeter=0;startArrow=classicThin;startFill=1;endArrow=none;endFill=0;" parent="1" source="mv5QSTBgRpdjpKBlADj9-131" target="mv5QSTBgRpdjpKBlADj9-127" edge="1">
          <mxGeometry relative="1" as="geometry">
            <Array as="points">
              <mxPoint x="346" y="1020" />
              <mxPoint x="1290" y="1020" />
            </Array>
          </mxGeometry>
        </mxCell>
        <mxCell id="mv5QSTBgRpdjpKBlADj9-131" value="見積印刷" style="rounded=1;whiteSpace=wrap;html=1;fillColor=#D5E8D4;" parent="1" vertex="1">
          <mxGeometry x="298.5" y="1035.5" width="94" height="50" as="geometry" />
        </mxCell>
        <mxCell id="mv5QSTBgRpdjpKBlADj9-132" style="edgeStyle=orthogonalEdgeStyle;rounded=1;orthogonalLoop=1;jettySize=auto;html=1;entryX=0.488;entryY=0.992;entryDx=0;entryDy=0;entryPerimeter=0;startArrow=classicThin;startFill=1;endArrow=none;endFill=0;" parent="1" source="mv5QSTBgRpdjpKBlADj9-133" target="mv5QSTBgRpdjpKBlADj9-131" edge="1">
          <mxGeometry relative="1" as="geometry">
            <Array as="points">
              <mxPoint x="547" y="1100" />
              <mxPoint x="344" y="1100" />
            </Array>
          </mxGeometry>
        </mxCell>
        <mxCell id="8Lsw9yTCtssHRGtylrge-1" style="edgeStyle=orthogonalEdgeStyle;rounded=1;orthogonalLoop=1;jettySize=auto;html=1;entryX=1;entryY=0.5;entryDx=0;entryDy=0;" parent="1" source="mv5QSTBgRpdjpKBlADj9-133" target="mv5QSTBgRpdjpKBlADj9-51" edge="1">
          <mxGeometry relative="1" as="geometry">
            <Array as="points">
              <mxPoint x="547" y="1172" />
              <mxPoint x="285" y="1172" />
            </Array>
          </mxGeometry>
        </mxCell>
        <mxCell id="mv5QSTBgRpdjpKBlADj9-133" value="訪問時提出" style="rounded=1;whiteSpace=wrap;html=1;fillColor=#D5E8D4;" parent="1" vertex="1">
          <mxGeometry x="433" y="1115" width="228" height="43" as="geometry" />
        </mxCell>
        <mxCell id="mv5QSTBgRpdjpKBlADj9-134" style="edgeStyle=orthogonalEdgeStyle;rounded=1;orthogonalLoop=1;jettySize=auto;html=1;entryX=0.513;entryY=0.992;entryDx=0;entryDy=0;entryPerimeter=0;startArrow=classicThin;startFill=1;endArrow=none;endFill=0;" parent="1" source="mv5QSTBgRpdjpKBlADj9-135" target="mv5QSTBgRpdjpKBlADj9-137" edge="1">
          <mxGeometry relative="1" as="geometry">
            <Array as="points">
              <mxPoint x="950" y="1100" />
              <mxPoint x="750" y="1100" />
            </Array>
          </mxGeometry>
        </mxCell>
        <mxCell id="8Lsw9yTCtssHRGtylrge-2" style="edgeStyle=orthogonalEdgeStyle;rounded=1;orthogonalLoop=1;jettySize=auto;html=1;entryX=1;entryY=0.5;entryDx=0;entryDy=0;" parent="1" source="mv5QSTBgRpdjpKBlADj9-135" target="mv5QSTBgRpdjpKBlADj9-51" edge="1">
          <mxGeometry relative="1" as="geometry">
            <Array as="points">
              <mxPoint x="951" y="1172" />
              <mxPoint x="486" y="1172" />
            </Array>
          </mxGeometry>
        </mxCell>
        <mxCell id="mv5QSTBgRpdjpKBlADj9-135" value="訪問時提出" style="rounded=1;whiteSpace=wrap;html=1;fillColor=#D5E8D4;" parent="1" vertex="1">
          <mxGeometry x="836.5" y="1115" width="228" height="43" as="geometry" />
        </mxCell>
        <mxCell id="mv5QSTBgRpdjpKBlADj9-136" style="edgeStyle=orthogonalEdgeStyle;rounded=1;orthogonalLoop=1;jettySize=auto;html=1;entryX=0.529;entryY=1.012;entryDx=0;entryDy=0;entryPerimeter=0;startArrow=classicThin;startFill=1;endArrow=none;endFill=0;" parent="1" source="mv5QSTBgRpdjpKBlADj9-137" target="mv5QSTBgRpdjpKBlADj9-127" edge="1">
          <mxGeometry relative="1" as="geometry">
            <Array as="points">
              <mxPoint x="749" y="1020" />
              <mxPoint x="1290" y="1020" />
            </Array>
          </mxGeometry>
        </mxCell>
        <mxCell id="mv5QSTBgRpdjpKBlADj9-137" value="見積印刷" style="rounded=1;whiteSpace=wrap;html=1;fillColor=#D5E8D4;" parent="1" vertex="1">
          <mxGeometry x="702" y="1035.5" width="94" height="50" as="geometry" />
        </mxCell>
        <mxCell id="mv5QSTBgRpdjpKBlADj9-138" value="&lt;span style=&quot;font-size: 24px&quot;&gt;&lt;b&gt;YCK　業務フロー図&lt;/b&gt;&lt;/span&gt;" style="rounded=0;whiteSpace=wrap;html=1;fillColor=#CCCCFF;" parent="1" vertex="1">
          <mxGeometry x="9" y="5.5" width="1476" height="60" as="geometry" />
        </mxCell>
        <mxCell id="mv5QSTBgRpdjpKBlADj9-143" style="edgeStyle=orthogonalEdgeStyle;rounded=1;orthogonalLoop=1;jettySize=auto;html=1;entryX=0.5;entryY=1;entryDx=0;entryDy=0;startArrow=classicThin;startFill=1;endArrow=none;endFill=0;exitX=0.5;exitY=0;exitDx=0;exitDy=0;" parent="1" source="mv5QSTBgRpdjpKBlADj9-95" target="mv5QSTBgRpdjpKBlADj9-91" edge="1">
          <mxGeometry relative="1" as="geometry">
            <mxPoint x="1013.8082352941176" y="711.0194117647059" as="sourcePoint" />
            <Array as="points">
              <mxPoint x="1014" y="696" />
              <mxPoint x="884" y="696" />
              <mxPoint x="884" y="672" />
            </Array>
            <mxPoint x="884.183" y="687.4950000000001" as="targetPoint" />
          </mxGeometry>
        </mxCell>
        <mxCell id="8Lsw9yTCtssHRGtylrge-9" style="edgeStyle=orthogonalEdgeStyle;rounded=1;orthogonalLoop=1;jettySize=auto;html=1;entryX=0.5;entryY=0;entryDx=0;entryDy=0;" parent="1" source="8Lsw9yTCtssHRGtylrge-6" target="8Lsw9yTCtssHRGtylrge-7" edge="1">
          <mxGeometry relative="1" as="geometry">
            <Array as="points">
              <mxPoint x="346" y="1320" />
              <mxPoint x="617" y="1320" />
            </Array>
          </mxGeometry>
        </mxCell>
        <mxCell id="8Lsw9yTCtssHRGtylrge-6" value="&lt;div&gt;Excelフリーにて&lt;/div&gt;&lt;div&gt;請負契約書作成&lt;/div&gt;" style="rounded=1;whiteSpace=wrap;html=1;fillColor=#fff2cc;strokeColor=#d6b656;" parent="1" vertex="1">
          <mxGeometry x="298.5" y="1263" width="94" height="43" as="geometry" />
        </mxCell>
        <mxCell id="8Lsw9yTCtssHRGtylrge-7" value="&lt;div&gt;契約書持参・&lt;/div&gt;&lt;div&gt;調印&lt;/div&gt;" style="rounded=1;whiteSpace=wrap;html=1;fillColor=#fff2cc;strokeColor=#d6b656;" parent="1" vertex="1">
          <mxGeometry x="570" y="1339" width="94" height="43" as="geometry" />
        </mxCell>
        <mxCell id="8Lsw9yTCtssHRGtylrge-10" value="&lt;div&gt;Excelフリーにて&lt;/div&gt;&lt;div&gt;請負契約書作成&lt;/div&gt;" style="rounded=1;whiteSpace=wrap;html=1;fillColor=#fff2cc;strokeColor=#d6b656;" parent="1" vertex="1">
          <mxGeometry x="700.25" y="1263" width="94" height="43" as="geometry" />
        </mxCell>
        <mxCell id="8Lsw9yTCtssHRGtylrge-11" style="edgeStyle=orthogonalEdgeStyle;rounded=1;orthogonalLoop=1;jettySize=auto;html=1;entryX=0.5;entryY=0;entryDx=0;entryDy=0;" parent="1" source="8Lsw9yTCtssHRGtylrge-10" target="8Lsw9yTCtssHRGtylrge-12" edge="1">
          <mxGeometry relative="1" as="geometry">
            <Array as="points">
              <mxPoint x="747.75" y="1320" />
              <mxPoint x="1018.75" y="1320" />
            </Array>
          </mxGeometry>
        </mxCell>
        <mxCell id="8Lsw9yTCtssHRGtylrge-12" value="&lt;div&gt;契約書持参・&lt;/div&gt;&lt;div&gt;調印&lt;/div&gt;" style="rounded=1;whiteSpace=wrap;html=1;fillColor=#fff2cc;strokeColor=#d6b656;" parent="1" vertex="1">
          <mxGeometry x="971.75" y="1339" width="94" height="43" as="geometry" />
        </mxCell>
        <mxCell id="evgMNFWdpNjPDC0drzfe-6" style="edgeStyle=orthogonalEdgeStyle;rounded=1;orthogonalLoop=1;jettySize=auto;html=1;entryX=0;entryY=0.5;entryDx=0;entryDy=0;" parent="1" source="evgMNFWdpNjPDC0drzfe-2" target="evgMNFWdpNjPDC0drzfe-3" edge="1">
          <mxGeometry relative="1" as="geometry" />
        </mxCell>
        <mxCell id="evgMNFWdpNjPDC0drzfe-32" style="edgeStyle=orthogonalEdgeStyle;rounded=1;orthogonalLoop=1;jettySize=auto;html=1;entryX=0.5;entryY=0;entryDx=0;entryDy=0;" parent="1" source="evgMNFWdpNjPDC0drzfe-2" target="evgMNFWdpNjPDC0drzfe-12" edge="1">
          <mxGeometry relative="1" as="geometry">
            <Array as="points">
              <mxPoint x="480" y="1500" />
              <mxPoint x="600" y="1500" />
              <mxPoint x="600" y="1650" />
              <mxPoint x="347" y="1650" />
            </Array>
          </mxGeometry>
        </mxCell>
        <mxCell id="evgMNFWdpNjPDC0drzfe-2" value="仕入先へ見積り依頼" style="rounded=1;whiteSpace=wrap;html=1;fillColor=#ffe6cc;strokeColor=#d79b00;" parent="1" vertex="1">
          <mxGeometry x="432.5" y="1440" width="94" height="43" as="geometry" />
        </mxCell>
        <mxCell id="evgMNFWdpNjPDC0drzfe-33" style="edgeStyle=orthogonalEdgeStyle;rounded=1;orthogonalLoop=1;jettySize=auto;html=1;entryX=0.5;entryY=0;entryDx=0;entryDy=0;" parent="1" source="evgMNFWdpNjPDC0drzfe-3" target="evgMNFWdpNjPDC0drzfe-13" edge="1">
          <mxGeometry relative="1" as="geometry">
            <Array as="points">
              <mxPoint x="886" y="1500" />
              <mxPoint x="1000" y="1500" />
              <mxPoint x="1000" y="1650" />
              <mxPoint x="748" y="1650" />
            </Array>
          </mxGeometry>
        </mxCell>
        <mxCell id="evgMNFWdpNjPDC0drzfe-3" value="仕入先へ見積り依頼" style="rounded=1;whiteSpace=wrap;html=1;fillColor=#ffe6cc;strokeColor=#d79b00;" parent="1" vertex="1">
          <mxGeometry x="838.5" y="1440" width="94" height="43" as="geometry" />
        </mxCell>
        <mxCell id="evgMNFWdpNjPDC0drzfe-40" style="edgeStyle=orthogonalEdgeStyle;rounded=1;orthogonalLoop=1;jettySize=auto;html=1;entryX=0.5;entryY=0;entryDx=0;entryDy=0;" parent="1" source="evgMNFWdpNjPDC0drzfe-7" target="evgMNFWdpNjPDC0drzfe-11" edge="1">
          <mxGeometry relative="1" as="geometry">
            <Array as="points">
              <mxPoint x="345" y="1600" />
              <mxPoint x="212" y="1600" />
            </Array>
          </mxGeometry>
        </mxCell>
        <mxCell id="evgMNFWdpNjPDC0drzfe-7" value="&lt;div&gt;（新規）&lt;/div&gt;&lt;div&gt;仕入先登録依頼&lt;/div&gt;" style="rounded=1;whiteSpace=wrap;html=1;fillColor=#ffe6cc;strokeColor=#d79b00;" parent="1" vertex="1">
          <mxGeometry x="297.5" y="1539" width="94" height="43" as="geometry" />
        </mxCell>
        <mxCell id="evgMNFWdpNjPDC0drzfe-41" style="edgeStyle=orthogonalEdgeStyle;rounded=1;orthogonalLoop=1;jettySize=auto;html=1;entryX=0.5;entryY=0;entryDx=0;entryDy=0;" parent="1" source="evgMNFWdpNjPDC0drzfe-8" target="evgMNFWdpNjPDC0drzfe-11" edge="1">
          <mxGeometry relative="1" as="geometry">
            <Array as="points">
              <mxPoint x="480" y="1600" />
              <mxPoint x="212" y="1600" />
            </Array>
          </mxGeometry>
        </mxCell>
        <mxCell id="evgMNFWdpNjPDC0drzfe-8" value="&lt;div&gt;（新規）&lt;/div&gt;&lt;div&gt;仕入先登録依頼&lt;/div&gt;" style="rounded=1;whiteSpace=wrap;html=1;fillColor=#ffe6cc;strokeColor=#d79b00;" parent="1" vertex="1">
          <mxGeometry x="433" y="1539" width="94" height="43" as="geometry" />
        </mxCell>
        <mxCell id="evgMNFWdpNjPDC0drzfe-42" style="edgeStyle=orthogonalEdgeStyle;rounded=1;orthogonalLoop=1;jettySize=auto;html=1;entryX=0.5;entryY=0;entryDx=0;entryDy=0;" parent="1" source="evgMNFWdpNjPDC0drzfe-9" target="evgMNFWdpNjPDC0drzfe-11" edge="1">
          <mxGeometry relative="1" as="geometry">
            <Array as="points">
              <mxPoint x="748" y="1600" />
              <mxPoint x="212" y="1600" />
            </Array>
          </mxGeometry>
        </mxCell>
        <mxCell id="evgMNFWdpNjPDC0drzfe-9" value="&lt;div&gt;（新規）&lt;/div&gt;&lt;div&gt;仕入先登録依頼&lt;/div&gt;" style="rounded=1;whiteSpace=wrap;html=1;fillColor=#ffe6cc;strokeColor=#d79b00;" parent="1" vertex="1">
          <mxGeometry x="700.5" y="1539" width="94" height="43" as="geometry" />
        </mxCell>
        <mxCell id="evgMNFWdpNjPDC0drzfe-43" style="edgeStyle=orthogonalEdgeStyle;rounded=1;orthogonalLoop=1;jettySize=auto;html=1;" parent="1" source="evgMNFWdpNjPDC0drzfe-10" target="evgMNFWdpNjPDC0drzfe-11" edge="1">
          <mxGeometry relative="1" as="geometry">
            <Array as="points">
              <mxPoint x="885" y="1600" />
              <mxPoint x="212" y="1600" />
            </Array>
          </mxGeometry>
        </mxCell>
        <mxCell id="evgMNFWdpNjPDC0drzfe-10" value="&lt;div&gt;（新規）&lt;/div&gt;&lt;div&gt;仕入先登録依頼&lt;/div&gt;" style="rounded=1;whiteSpace=wrap;html=1;fillColor=#ffe6cc;strokeColor=#d79b00;" parent="1" vertex="1">
          <mxGeometry x="838" y="1539" width="94" height="43" as="geometry" />
        </mxCell>
        <mxCell id="evgMNFWdpNjPDC0drzfe-11" value="&lt;div&gt;&lt;span&gt;仕入先登録&lt;/span&gt;&lt;br&gt;&lt;/div&gt;" style="rounded=1;whiteSpace=wrap;html=1;fillColor=#ffe6cc;strokeColor=#d79b00;" parent="1" vertex="1">
          <mxGeometry x="164.5" y="1617" width="94" height="43" as="geometry" />
        </mxCell>
        <mxCell id="evgMNFWdpNjPDC0drzfe-44" style="edgeStyle=orthogonalEdgeStyle;rounded=1;orthogonalLoop=1;jettySize=auto;html=1;exitX=0.5;exitY=1;exitDx=0;exitDy=0;entryX=0.5;entryY=0;entryDx=0;entryDy=0;" parent="1" source="evgMNFWdpNjPDC0drzfe-12" target="evgMNFWdpNjPDC0drzfe-14" edge="1">
          <mxGeometry relative="1" as="geometry" />
        </mxCell>
        <mxCell id="evgMNFWdpNjPDC0drzfe-12" value="&lt;div&gt;&lt;div&gt;予算書をベース&lt;/div&gt;&lt;div&gt;に発注入力&lt;/div&gt;&lt;/div&gt;" style="rounded=1;whiteSpace=wrap;html=1;fillColor=#ffe6cc;strokeColor=#d79b00;" parent="1" vertex="1">
          <mxGeometry x="300" y="1670" width="94" height="43" as="geometry" />
        </mxCell>
        <mxCell id="evgMNFWdpNjPDC0drzfe-50" style="edgeStyle=orthogonalEdgeStyle;rounded=1;orthogonalLoop=1;jettySize=auto;html=1;exitX=0.5;exitY=1;exitDx=0;exitDy=0;entryX=0.5;entryY=0;entryDx=0;entryDy=0;" parent="1" source="evgMNFWdpNjPDC0drzfe-13" target="evgMNFWdpNjPDC0drzfe-15" edge="1">
          <mxGeometry relative="1" as="geometry" />
        </mxCell>
        <mxCell id="evgMNFWdpNjPDC0drzfe-13" value="&lt;div&gt;&lt;div&gt;予算書をベース&lt;/div&gt;&lt;div&gt;に発注入力&lt;/div&gt;&lt;/div&gt;" style="rounded=1;whiteSpace=wrap;html=1;fillColor=#ffe6cc;strokeColor=#d79b00;" parent="1" vertex="1">
          <mxGeometry x="700.5" y="1670" width="94" height="43" as="geometry" />
        </mxCell>
        <mxCell id="evgMNFWdpNjPDC0drzfe-45" style="edgeStyle=orthogonalEdgeStyle;rounded=1;orthogonalLoop=1;jettySize=auto;html=1;exitX=0.5;exitY=1;exitDx=0;exitDy=0;entryX=0.5;entryY=0;entryDx=0;entryDy=0;" parent="1" source="evgMNFWdpNjPDC0drzfe-14" target="evgMNFWdpNjPDC0drzfe-16" edge="1">
          <mxGeometry relative="1" as="geometry" />
        </mxCell>
        <mxCell id="evgMNFWdpNjPDC0drzfe-14" value="&lt;div&gt;項目ごとに&lt;/div&gt;&lt;div&gt;発注書作成&lt;/div&gt;" style="rounded=1;whiteSpace=wrap;html=1;fillColor=#ffe6cc;strokeColor=#d79b00;" parent="1" vertex="1">
          <mxGeometry x="300" y="1730" width="94" height="43" as="geometry" />
        </mxCell>
        <mxCell id="evgMNFWdpNjPDC0drzfe-51" style="edgeStyle=orthogonalEdgeStyle;rounded=1;orthogonalLoop=1;jettySize=auto;html=1;exitX=0.5;exitY=1;exitDx=0;exitDy=0;entryX=0.5;entryY=0;entryDx=0;entryDy=0;" parent="1" source="evgMNFWdpNjPDC0drzfe-15" target="evgMNFWdpNjPDC0drzfe-19" edge="1">
          <mxGeometry relative="1" as="geometry" />
        </mxCell>
        <mxCell id="evgMNFWdpNjPDC0drzfe-15" value="&lt;div&gt;項目ごとに&lt;/div&gt;&lt;div&gt;発注書作成&lt;/div&gt;" style="rounded=1;whiteSpace=wrap;html=1;fillColor=#ffe6cc;strokeColor=#d79b00;" parent="1" vertex="1">
          <mxGeometry x="701.5" y="1730" width="94" height="43" as="geometry" />
        </mxCell>
        <mxCell id="evgMNFWdpNjPDC0drzfe-46" style="edgeStyle=orthogonalEdgeStyle;rounded=1;orthogonalLoop=1;jettySize=auto;html=1;entryX=0;entryY=0.5;entryDx=0;entryDy=0;" parent="1" source="evgMNFWdpNjPDC0drzfe-16" target="evgMNFWdpNjPDC0drzfe-17" edge="1">
          <mxGeometry relative="1" as="geometry" />
        </mxCell>
        <mxCell id="evgMNFWdpNjPDC0drzfe-16" value="稟議書作成" style="rounded=1;whiteSpace=wrap;html=1;fillColor=#ffe6cc;strokeColor=#d79b00;" parent="1" vertex="1">
          <mxGeometry x="300" y="1800" width="94" height="43" as="geometry" />
        </mxCell>
        <mxCell id="evgMNFWdpNjPDC0drzfe-47" style="edgeStyle=orthogonalEdgeStyle;rounded=1;orthogonalLoop=1;jettySize=auto;html=1;" parent="1" source="evgMNFWdpNjPDC0drzfe-17" target="evgMNFWdpNjPDC0drzfe-18" edge="1">
          <mxGeometry relative="1" as="geometry" />
        </mxCell>
        <mxCell id="evgMNFWdpNjPDC0drzfe-17" value="&lt;div&gt;稟議チェック&lt;/div&gt;&lt;div&gt;・担当印&lt;/div&gt;" style="rounded=1;whiteSpace=wrap;html=1;fillColor=#ffe6cc;strokeColor=#d79b00;" parent="1" vertex="1">
          <mxGeometry x="435" y="1800" width="94" height="43" as="geometry" />
        </mxCell>
        <mxCell id="evgMNFWdpNjPDC0drzfe-49" style="edgeStyle=orthogonalEdgeStyle;rounded=1;orthogonalLoop=1;jettySize=auto;html=1;entryX=0.5;entryY=0;entryDx=0;entryDy=0;" parent="1" source="evgMNFWdpNjPDC0drzfe-18" target="evgMNFWdpNjPDC0drzfe-22" edge="1">
          <mxGeometry relative="1" as="geometry">
            <Array as="points">
              <mxPoint x="680" y="1812" />
              <mxPoint x="680" y="1785" />
              <mxPoint x="1152" y="1785" />
            </Array>
          </mxGeometry>
        </mxCell>
        <mxCell id="evgMNFWdpNjPDC0drzfe-18" value="稟議決裁" style="rounded=1;whiteSpace=wrap;html=1;fillColor=#ffe6cc;strokeColor=#d79b00;" parent="1" vertex="1">
          <mxGeometry x="566.5" y="1800" width="94" height="43" as="geometry" />
        </mxCell>
        <mxCell id="evgMNFWdpNjPDC0drzfe-52" style="edgeStyle=orthogonalEdgeStyle;rounded=1;orthogonalLoop=1;jettySize=auto;html=1;entryX=0;entryY=0.5;entryDx=0;entryDy=0;" parent="1" source="evgMNFWdpNjPDC0drzfe-19" target="evgMNFWdpNjPDC0drzfe-20" edge="1">
          <mxGeometry relative="1" as="geometry" />
        </mxCell>
        <mxCell id="evgMNFWdpNjPDC0drzfe-19" value="稟議書作成" style="rounded=1;whiteSpace=wrap;html=1;fillColor=#ffe6cc;strokeColor=#d79b00;" parent="1" vertex="1">
          <mxGeometry x="701.5" y="1800" width="94" height="43" as="geometry" />
        </mxCell>
        <mxCell id="evgMNFWdpNjPDC0drzfe-53" style="edgeStyle=orthogonalEdgeStyle;rounded=1;orthogonalLoop=1;jettySize=auto;html=1;exitX=1;exitY=0.5;exitDx=0;exitDy=0;entryX=0;entryY=0.5;entryDx=0;entryDy=0;" parent="1" source="evgMNFWdpNjPDC0drzfe-20" target="evgMNFWdpNjPDC0drzfe-21" edge="1">
          <mxGeometry relative="1" as="geometry" />
        </mxCell>
        <mxCell id="evgMNFWdpNjPDC0drzfe-20" value="&lt;div&gt;稟議チェック&lt;/div&gt;&lt;div&gt;・担当印&lt;/div&gt;" style="rounded=1;whiteSpace=wrap;html=1;fillColor=#ffe6cc;strokeColor=#d79b00;" parent="1" vertex="1">
          <mxGeometry x="838.5" y="1800" width="94" height="43" as="geometry" />
        </mxCell>
        <mxCell id="evgMNFWdpNjPDC0drzfe-54" style="edgeStyle=orthogonalEdgeStyle;rounded=1;orthogonalLoop=1;jettySize=auto;html=1;exitX=1;exitY=0.5;exitDx=0;exitDy=0;entryX=0;entryY=0.5;entryDx=0;entryDy=0;" parent="1" source="evgMNFWdpNjPDC0drzfe-21" target="evgMNFWdpNjPDC0drzfe-22" edge="1">
          <mxGeometry relative="1" as="geometry" />
        </mxCell>
        <mxCell id="evgMNFWdpNjPDC0drzfe-21" value="稟議決裁" style="rounded=1;whiteSpace=wrap;html=1;fillColor=#ffe6cc;strokeColor=#d79b00;" parent="1" vertex="1">
          <mxGeometry x="971.75" y="1800" width="94" height="43" as="geometry" />
        </mxCell>
        <mxCell id="evgMNFWdpNjPDC0drzfe-55" style="edgeStyle=orthogonalEdgeStyle;rounded=1;orthogonalLoop=1;jettySize=auto;html=1;exitX=1;exitY=0.5;exitDx=0;exitDy=0;entryX=0;entryY=0.5;entryDx=0;entryDy=0;" parent="1" source="evgMNFWdpNjPDC0drzfe-22" target="evgMNFWdpNjPDC0drzfe-23" edge="1">
          <mxGeometry relative="1" as="geometry" />
        </mxCell>
        <mxCell id="evgMNFWdpNjPDC0drzfe-56" style="edgeStyle=orthogonalEdgeStyle;rounded=1;orthogonalLoop=1;jettySize=auto;html=1;entryX=0.5;entryY=0;entryDx=0;entryDy=0;" parent="1" source="evgMNFWdpNjPDC0drzfe-22" target="evgMNFWdpNjPDC0drzfe-24" edge="1">
          <mxGeometry relative="1" as="geometry">
            <Array as="points">
              <mxPoint x="1152" y="1855" />
              <mxPoint x="346" y="1855" />
            </Array>
          </mxGeometry>
        </mxCell>
        <mxCell id="evgMNFWdpNjPDC0drzfe-22" value="稟議書決裁" style="rounded=1;whiteSpace=wrap;html=1;fillColor=#ffe6cc;strokeColor=#d79b00;" parent="1" vertex="1">
          <mxGeometry x="1105" y="1800" width="94" height="43" as="geometry" />
        </mxCell>
        <mxCell id="evgMNFWdpNjPDC0drzfe-57" style="edgeStyle=orthogonalEdgeStyle;rounded=1;orthogonalLoop=1;jettySize=auto;html=1;entryX=0.5;entryY=0;entryDx=0;entryDy=0;" parent="1" source="evgMNFWdpNjPDC0drzfe-23" target="evgMNFWdpNjPDC0drzfe-25" edge="1">
          <mxGeometry relative="1" as="geometry">
            <Array as="points">
              <mxPoint x="1285" y="1865" />
              <mxPoint x="750" y="1865" />
            </Array>
          </mxGeometry>
        </mxCell>
        <mxCell id="evgMNFWdpNjPDC0drzfe-58" style="edgeStyle=orthogonalEdgeStyle;rounded=1;orthogonalLoop=1;jettySize=auto;html=1;exitX=0.5;exitY=1;exitDx=0;exitDy=0;entryX=0.5;entryY=0;entryDx=0;entryDy=0;" parent="1" source="evgMNFWdpNjPDC0drzfe-23" target="evgMNFWdpNjPDC0drzfe-24" edge="1">
          <mxGeometry relative="1" as="geometry">
            <Array as="points">
              <mxPoint x="1285" y="1855" />
              <mxPoint x="346" y="1855" />
            </Array>
          </mxGeometry>
        </mxCell>
        <mxCell id="evgMNFWdpNjPDC0drzfe-23" value="&lt;div&gt;稟議書決裁&lt;/div&gt;&lt;div&gt;（予算超過時のみ）&lt;/div&gt;" style="rounded=1;whiteSpace=wrap;html=1;fillColor=#ffe6cc;strokeColor=#d79b00;" parent="1" vertex="1">
          <mxGeometry x="1238.25" y="1800" width="94" height="43" as="geometry" />
        </mxCell>
        <mxCell id="evgMNFWdpNjPDC0drzfe-24" value="発注書送付" style="rounded=1;whiteSpace=wrap;html=1;fillColor=#ffe6cc;strokeColor=#d79b00;" parent="1" vertex="1">
          <mxGeometry x="298.5" y="1878" width="94" height="43" as="geometry" />
        </mxCell>
        <mxCell id="evgMNFWdpNjPDC0drzfe-25" value="発注書送付" style="rounded=1;whiteSpace=wrap;html=1;fillColor=#ffe6cc;strokeColor=#d79b00;" parent="1" vertex="1">
          <mxGeometry x="702.5" y="1878" width="94" height="43" as="geometry" />
        </mxCell>
        <mxCell id="evgMNFWdpNjPDC0drzfe-67" style="edgeStyle=orthogonalEdgeStyle;rounded=1;orthogonalLoop=1;jettySize=auto;html=1;entryX=0.5;entryY=0;entryDx=0;entryDy=0;" parent="1" source="evgMNFWdpNjPDC0drzfe-62" target="evgMNFWdpNjPDC0drzfe-66" edge="1">
          <mxGeometry relative="1" as="geometry" />
        </mxCell>
        <mxCell id="evgMNFWdpNjPDC0drzfe-62" value="&lt;div&gt;仕入先から&lt;/div&gt;&lt;div&gt;請求書受領&lt;/div&gt;" style="rounded=1;whiteSpace=wrap;html=1;fillColor=#F19C99;" parent="1" vertex="1">
          <mxGeometry x="837.5" y="2398" width="89" height="43" as="geometry" />
        </mxCell>
        <mxCell id="evgMNFWdpNjPDC0drzfe-92" style="edgeStyle=orthogonalEdgeStyle;rounded=1;orthogonalLoop=1;jettySize=auto;html=1;entryX=0.5;entryY=0;entryDx=0;entryDy=0;" parent="1" source="evgMNFWdpNjPDC0drzfe-64" target="evgMNFWdpNjPDC0drzfe-70" edge="1">
          <mxGeometry relative="1" as="geometry" />
        </mxCell>
        <mxCell id="evgMNFWdpNjPDC0drzfe-64" value="&lt;div&gt;請求書確認・&lt;/div&gt;&lt;div&gt;検印&lt;/div&gt;" style="rounded=1;whiteSpace=wrap;html=1;fillColor=#F19C99;" parent="1" vertex="1">
          <mxGeometry x="570.5" y="2439" width="89" height="43" as="geometry" />
        </mxCell>
        <mxCell id="evgMNFWdpNjPDC0drzfe-69" style="edgeStyle=orthogonalEdgeStyle;rounded=1;orthogonalLoop=1;jettySize=auto;html=1;entryX=0.5;entryY=0;entryDx=0;entryDy=0;" parent="1" source="evgMNFWdpNjPDC0drzfe-66" target="evgMNFWdpNjPDC0drzfe-68" edge="1">
          <mxGeometry relative="1" as="geometry">
            <Array as="points">
              <mxPoint x="1019" y="2490" />
              <mxPoint x="884" y="2490" />
            </Array>
          </mxGeometry>
        </mxCell>
        <mxCell id="evgMNFWdpNjPDC0drzfe-66" value="&lt;div&gt;請求書確認・&lt;/div&gt;&lt;div&gt;検印&lt;/div&gt;" style="rounded=1;whiteSpace=wrap;html=1;fillColor=#F19C99;" parent="1" vertex="1">
          <mxGeometry x="974" y="2439" width="89" height="43" as="geometry" />
        </mxCell>
        <mxCell id="evgMNFWdpNjPDC0drzfe-87" style="edgeStyle=orthogonalEdgeStyle;rounded=1;orthogonalLoop=1;jettySize=auto;html=1;entryX=0.5;entryY=0;entryDx=0;entryDy=0;" parent="1" source="evgMNFWdpNjPDC0drzfe-68" target="evgMNFWdpNjPDC0drzfe-86" edge="1">
          <mxGeometry relative="1" as="geometry">
            <Array as="points">
              <mxPoint x="884" y="2555" />
              <mxPoint x="749" y="2555" />
            </Array>
          </mxGeometry>
        </mxCell>
        <mxCell id="evgMNFWdpNjPDC0drzfe-68" value="&lt;div&gt;請求書を本社へ&lt;/div&gt;&lt;div&gt;送付(メール便&lt;/div&gt;" style="rounded=1;whiteSpace=wrap;html=1;fillColor=#F19C99;" parent="1" vertex="1">
          <mxGeometry x="831" y="2503" width="105" height="43" as="geometry" />
        </mxCell>
        <mxCell id="evgMNFWdpNjPDC0drzfe-93" style="edgeStyle=orthogonalEdgeStyle;rounded=1;orthogonalLoop=1;jettySize=auto;html=1;exitX=0.5;exitY=1;exitDx=0;exitDy=0;entryX=0.5;entryY=0;entryDx=0;entryDy=0;" parent="1" source="evgMNFWdpNjPDC0drzfe-70" target="evgMNFWdpNjPDC0drzfe-71" edge="1">
          <mxGeometry relative="1" as="geometry" />
        </mxCell>
        <mxCell id="evgMNFWdpNjPDC0drzfe-70" value="&lt;div&gt;支払依頼&lt;/div&gt;&lt;div&gt;(リースなど&lt;/div&gt;&lt;div&gt;発注しないもの&lt;/div&gt;" style="rounded=1;whiteSpace=wrap;html=1;fillColor=#F19C99;" parent="1" vertex="1">
          <mxGeometry x="291" y="2503" width="105" height="57" as="geometry" />
        </mxCell>
        <mxCell id="evgMNFWdpNjPDC0drzfe-94" style="edgeStyle=orthogonalEdgeStyle;rounded=1;orthogonalLoop=1;jettySize=auto;html=1;exitX=0.5;exitY=1;exitDx=0;exitDy=0;entryX=0.5;entryY=0;entryDx=0;entryDy=0;" parent="1" source="evgMNFWdpNjPDC0drzfe-71" target="evgMNFWdpNjPDC0drzfe-72" edge="1">
          <mxGeometry relative="1" as="geometry" />
        </mxCell>
        <mxCell id="evgMNFWdpNjPDC0drzfe-71" value="&lt;div&gt;請求書&lt;/div&gt;&lt;div&gt;スキャン&lt;/div&gt;" style="rounded=1;whiteSpace=wrap;html=1;fillColor=#F19C99;" parent="1" vertex="1">
          <mxGeometry x="291" y="2580" width="105" height="43" as="geometry" />
        </mxCell>
        <mxCell id="evgMNFWdpNjPDC0drzfe-95" style="edgeStyle=orthogonalEdgeStyle;rounded=1;orthogonalLoop=1;jettySize=auto;html=1;exitX=0.5;exitY=1;exitDx=0;exitDy=0;entryX=0.5;entryY=0;entryDx=0;entryDy=0;" parent="1" source="evgMNFWdpNjPDC0drzfe-72" target="evgMNFWdpNjPDC0drzfe-73" edge="1">
          <mxGeometry relative="1" as="geometry" />
        </mxCell>
        <mxCell id="evgMNFWdpNjPDC0drzfe-72" value="&lt;div&gt;請求書を&lt;/div&gt;&lt;div&gt;Googleドライブに&lt;/div&gt;&lt;div&gt;アップロード&lt;/div&gt;" style="rounded=1;whiteSpace=wrap;html=1;fillColor=#F19C99;" parent="1" vertex="1">
          <mxGeometry x="291" y="2645" width="105" height="57" as="geometry" />
        </mxCell>
        <mxCell id="evgMNFWdpNjPDC0drzfe-75" style="edgeStyle=orthogonalEdgeStyle;rounded=1;orthogonalLoop=1;jettySize=auto;html=1;entryX=0.5;entryY=0;entryDx=0;entryDy=0;" parent="1" source="evgMNFWdpNjPDC0drzfe-73" target="evgMNFWdpNjPDC0drzfe-74" edge="1">
          <mxGeometry relative="1" as="geometry" />
        </mxCell>
        <mxCell id="evgMNFWdpNjPDC0drzfe-73" value="予算表の入力" style="rounded=1;whiteSpace=wrap;html=1;fillColor=#F19C99;" parent="1" vertex="1">
          <mxGeometry x="291" y="2725" width="105" height="43" as="geometry" />
        </mxCell>
        <mxCell id="evgMNFWdpNjPDC0drzfe-78" style="edgeStyle=orthogonalEdgeStyle;rounded=1;orthogonalLoop=1;jettySize=auto;html=1;entryX=0.5;entryY=0;entryDx=0;entryDy=0;" parent="1" source="evgMNFWdpNjPDC0drzfe-74" target="evgMNFWdpNjPDC0drzfe-76" edge="1">
          <mxGeometry relative="1" as="geometry">
            <Array as="points">
              <mxPoint x="621" y="2885" />
              <mxPoint x="347" y="2885" />
            </Array>
          </mxGeometry>
        </mxCell>
        <mxCell id="evgMNFWdpNjPDC0drzfe-74" value="予算表の確認" style="rounded=1;whiteSpace=wrap;html=1;fillColor=#F19C99;" parent="1" vertex="1">
          <mxGeometry x="568" y="2829" width="105" height="43" as="geometry" />
        </mxCell>
        <mxCell id="evgMNFWdpNjPDC0drzfe-79" style="edgeStyle=orthogonalEdgeStyle;rounded=1;orthogonalLoop=1;jettySize=auto;html=1;entryX=0.5;entryY=0;entryDx=0;entryDy=0;" parent="1" source="evgMNFWdpNjPDC0drzfe-76" target="evgMNFWdpNjPDC0drzfe-77" edge="1">
          <mxGeometry relative="1" as="geometry">
            <Array as="points">
              <mxPoint x="347" y="2950" />
              <mxPoint x="621" y="2950" />
            </Array>
          </mxGeometry>
        </mxCell>
        <mxCell id="evgMNFWdpNjPDC0drzfe-76" value="予算表の印刷" style="rounded=1;whiteSpace=wrap;html=1;fillColor=#F19C99;" parent="1" vertex="1">
          <mxGeometry x="294" y="2893" width="105" height="43" as="geometry" />
        </mxCell>
        <mxCell id="evgMNFWdpNjPDC0drzfe-103" style="edgeStyle=orthogonalEdgeStyle;rounded=1;orthogonalLoop=1;jettySize=auto;html=1;entryX=0.5;entryY=0;entryDx=0;entryDy=0;" parent="1" source="evgMNFWdpNjPDC0drzfe-77" target="evgMNFWdpNjPDC0drzfe-98" edge="1">
          <mxGeometry relative="1" as="geometry">
            <Array as="points">
              <mxPoint x="841" y="2983" />
              <mxPoint x="841" y="2942" />
              <mxPoint x="1157" y="2942" />
            </Array>
          </mxGeometry>
        </mxCell>
        <mxCell id="evgMNFWdpNjPDC0drzfe-77" value="支払承認" style="rounded=1;whiteSpace=wrap;html=1;fillColor=#F19C99;" parent="1" vertex="1">
          <mxGeometry x="568" y="2961" width="105" height="43" as="geometry" />
        </mxCell>
        <mxCell id="evgMNFWdpNjPDC0drzfe-101" style="edgeStyle=orthogonalEdgeStyle;rounded=1;orthogonalLoop=1;jettySize=auto;html=1;exitX=1;exitY=0.5;exitDx=0;exitDy=0;entryX=0;entryY=0.5;entryDx=0;entryDy=0;" parent="1" source="evgMNFWdpNjPDC0drzfe-80" target="evgMNFWdpNjPDC0drzfe-98" edge="1">
          <mxGeometry relative="1" as="geometry" />
        </mxCell>
        <mxCell id="evgMNFWdpNjPDC0drzfe-80" value="支払承認" style="rounded=1;whiteSpace=wrap;html=1;fillColor=#F19C99;" parent="1" vertex="1">
          <mxGeometry x="966" y="2961.5" width="105" height="43" as="geometry" />
        </mxCell>
        <mxCell id="evgMNFWdpNjPDC0drzfe-97" style="edgeStyle=orthogonalEdgeStyle;rounded=1;orthogonalLoop=1;jettySize=auto;html=1;" parent="1" source="evgMNFWdpNjPDC0drzfe-81" target="evgMNFWdpNjPDC0drzfe-80" edge="1">
          <mxGeometry relative="1" as="geometry">
            <Array as="points">
              <mxPoint x="752" y="2960" />
              <mxPoint x="901" y="2960" />
              <mxPoint x="901" y="2983" />
            </Array>
          </mxGeometry>
        </mxCell>
        <mxCell id="evgMNFWdpNjPDC0drzfe-81" value="予算表の印刷" style="rounded=1;whiteSpace=wrap;html=1;fillColor=#F19C99;" parent="1" vertex="1">
          <mxGeometry x="699" y="2898.5" width="105" height="43" as="geometry" />
        </mxCell>
        <mxCell id="evgMNFWdpNjPDC0drzfe-96" style="edgeStyle=orthogonalEdgeStyle;rounded=1;orthogonalLoop=1;jettySize=auto;html=1;" parent="1" source="evgMNFWdpNjPDC0drzfe-82" target="evgMNFWdpNjPDC0drzfe-81" edge="1">
          <mxGeometry relative="1" as="geometry">
            <Array as="points">
              <mxPoint x="1026" y="2885" />
              <mxPoint x="752" y="2885" />
            </Array>
          </mxGeometry>
        </mxCell>
        <mxCell id="evgMNFWdpNjPDC0drzfe-82" value="予算表の確認" style="rounded=1;whiteSpace=wrap;html=1;fillColor=#F19C99;" parent="1" vertex="1">
          <mxGeometry x="966" y="2829.5" width="105" height="43" as="geometry" />
        </mxCell>
        <mxCell id="evgMNFWdpNjPDC0drzfe-91" style="edgeStyle=orthogonalEdgeStyle;rounded=1;orthogonalLoop=1;jettySize=auto;html=1;exitX=0.5;exitY=1;exitDx=0;exitDy=0;entryX=0.5;entryY=0;entryDx=0;entryDy=0;" parent="1" source="evgMNFWdpNjPDC0drzfe-83" target="evgMNFWdpNjPDC0drzfe-82" edge="1">
          <mxGeometry relative="1" as="geometry" />
        </mxCell>
        <mxCell id="evgMNFWdpNjPDC0drzfe-83" value="予算表の入力" style="rounded=1;whiteSpace=wrap;html=1;fillColor=#F19C99;" parent="1" vertex="1">
          <mxGeometry x="696" y="2788.5" width="105" height="43" as="geometry" />
        </mxCell>
        <mxCell id="evgMNFWdpNjPDC0drzfe-90" style="edgeStyle=orthogonalEdgeStyle;rounded=1;orthogonalLoop=1;jettySize=auto;html=1;exitX=0.5;exitY=1;exitDx=0;exitDy=0;entryX=0.5;entryY=0;entryDx=0;entryDy=0;" parent="1" source="evgMNFWdpNjPDC0drzfe-84" target="evgMNFWdpNjPDC0drzfe-83" edge="1">
          <mxGeometry relative="1" as="geometry" />
        </mxCell>
        <mxCell id="evgMNFWdpNjPDC0drzfe-84" value="&lt;div&gt;請求書を&lt;/div&gt;&lt;div&gt;Googleドライブに&lt;/div&gt;&lt;div&gt;アップロード&lt;/div&gt;" style="rounded=1;whiteSpace=wrap;html=1;fillColor=#F19C99;" parent="1" vertex="1">
          <mxGeometry x="696" y="2708.5" width="105" height="57" as="geometry" />
        </mxCell>
        <mxCell id="evgMNFWdpNjPDC0drzfe-89" style="edgeStyle=orthogonalEdgeStyle;rounded=1;orthogonalLoop=1;jettySize=auto;html=1;exitX=0.5;exitY=1;exitDx=0;exitDy=0;entryX=0.5;entryY=0;entryDx=0;entryDy=0;" parent="1" source="evgMNFWdpNjPDC0drzfe-85" target="evgMNFWdpNjPDC0drzfe-84" edge="1">
          <mxGeometry relative="1" as="geometry" />
        </mxCell>
        <mxCell id="evgMNFWdpNjPDC0drzfe-85" value="&lt;div&gt;請求書&lt;/div&gt;&lt;div&gt;スキャン&lt;/div&gt;" style="rounded=1;whiteSpace=wrap;html=1;fillColor=#F19C99;" parent="1" vertex="1">
          <mxGeometry x="696" y="2643.5" width="105" height="43" as="geometry" />
        </mxCell>
        <mxCell id="evgMNFWdpNjPDC0drzfe-88" style="edgeStyle=orthogonalEdgeStyle;rounded=1;orthogonalLoop=1;jettySize=auto;html=1;" parent="1" source="evgMNFWdpNjPDC0drzfe-86" target="evgMNFWdpNjPDC0drzfe-85" edge="1">
          <mxGeometry relative="1" as="geometry" />
        </mxCell>
        <mxCell id="evgMNFWdpNjPDC0drzfe-86" value="&lt;div&gt;支払依頼&lt;/div&gt;&lt;div&gt;(リースなど&lt;/div&gt;&lt;div&gt;発注しないもの&lt;/div&gt;" style="rounded=1;whiteSpace=wrap;html=1;fillColor=#F19C99;" parent="1" vertex="1">
          <mxGeometry x="696" y="2566.5" width="105" height="57" as="geometry" />
        </mxCell>
        <mxCell id="evgMNFWdpNjPDC0drzfe-102" style="edgeStyle=orthogonalEdgeStyle;rounded=1;orthogonalLoop=1;jettySize=auto;html=1;exitX=1;exitY=0.5;exitDx=0;exitDy=0;entryX=0;entryY=0.5;entryDx=0;entryDy=0;" parent="1" source="evgMNFWdpNjPDC0drzfe-98" target="evgMNFWdpNjPDC0drzfe-99" edge="1">
          <mxGeometry relative="1" as="geometry" />
        </mxCell>
        <mxCell id="evgMNFWdpNjPDC0drzfe-105" style="edgeStyle=orthogonalEdgeStyle;rounded=1;orthogonalLoop=1;jettySize=auto;html=1;exitX=0.5;exitY=1;exitDx=0;exitDy=0;entryX=0.981;entryY=0.477;entryDx=0;entryDy=0;entryPerimeter=0;" parent="1" source="evgMNFWdpNjPDC0drzfe-98" target="evgMNFWdpNjPDC0drzfe-104" edge="1">
          <mxGeometry relative="1" as="geometry">
            <mxPoint x="436" y="3070" as="targetPoint" />
            <Array as="points">
              <mxPoint x="1157" y="3020" />
            </Array>
          </mxGeometry>
        </mxCell>
        <mxCell id="evgMNFWdpNjPDC0drzfe-98" value="支払承認" style="rounded=1;whiteSpace=wrap;html=1;fillColor=#F19C99;" parent="1" vertex="1">
          <mxGeometry x="1104.5" y="2961.5" width="105" height="43" as="geometry" />
        </mxCell>
        <mxCell id="evgMNFWdpNjPDC0drzfe-99" value="&lt;div&gt;予算超過した場合&lt;/div&gt;&lt;div&gt;のみ支払金額の確認&lt;/div&gt;" style="rounded=1;whiteSpace=wrap;html=1;fillColor=#F19C99;" parent="1" vertex="1">
          <mxGeometry x="1236" y="2961.5" width="120" height="43" as="geometry" />
        </mxCell>
        <mxCell id="evgMNFWdpNjPDC0drzfe-107" style="edgeStyle=orthogonalEdgeStyle;rounded=1;orthogonalLoop=1;jettySize=auto;html=1;entryX=0.5;entryY=0;entryDx=0;entryDy=0;" parent="1" source="evgMNFWdpNjPDC0drzfe-104" target="evgMNFWdpNjPDC0drzfe-106" edge="1">
          <mxGeometry relative="1" as="geometry" />
        </mxCell>
        <mxCell id="evgMNFWdpNjPDC0drzfe-104" value="&lt;div&gt;仕入データ&lt;/div&gt;&lt;div&gt;経理へ提出&lt;/div&gt;" style="rounded=1;whiteSpace=wrap;html=1;fillColor=#F19C99;" parent="1" vertex="1">
          <mxGeometry x="293" y="2999.5" width="105" height="43" as="geometry" />
        </mxCell>
        <mxCell id="evgMNFWdpNjPDC0drzfe-112" style="edgeStyle=orthogonalEdgeStyle;rounded=1;orthogonalLoop=1;jettySize=auto;html=1;" parent="1" source="evgMNFWdpNjPDC0drzfe-106" target="evgMNFWdpNjPDC0drzfe-111" edge="1">
          <mxGeometry relative="1" as="geometry">
            <Array as="points">
              <mxPoint x="211" y="3100" />
            </Array>
          </mxGeometry>
        </mxCell>
        <mxCell id="evgMNFWdpNjPDC0drzfe-114" style="edgeStyle=orthogonalEdgeStyle;rounded=1;orthogonalLoop=1;jettySize=auto;html=1;entryX=0;entryY=0.5;entryDx=0;entryDy=0;" parent="1" source="evgMNFWdpNjPDC0drzfe-106" target="evgMNFWdpNjPDC0drzfe-113" edge="1">
          <mxGeometry relative="1" as="geometry" />
        </mxCell>
        <mxCell id="evgMNFWdpNjPDC0drzfe-106" value="&lt;div&gt;仕入データチェック&lt;/div&gt;&lt;div&gt;仕入伝票&lt;/div&gt;" style="rounded=1;whiteSpace=wrap;html=1;fillColor=#F19C99;" parent="1" vertex="1">
          <mxGeometry x="151" y="3048" width="120" height="43" as="geometry" />
        </mxCell>
        <mxCell id="evgMNFWdpNjPDC0drzfe-116" style="edgeStyle=orthogonalEdgeStyle;rounded=1;orthogonalLoop=1;jettySize=auto;html=1;entryX=0.5;entryY=0;entryDx=0;entryDy=0;" parent="1" source="evgMNFWdpNjPDC0drzfe-111" target="evgMNFWdpNjPDC0drzfe-115" edge="1">
          <mxGeometry relative="1" as="geometry">
            <Array as="points">
              <mxPoint x="1025" y="3170" />
              <mxPoint x="619" y="3170" />
              <mxPoint x="619" y="3136" />
              <mxPoint x="213" y="3136" />
            </Array>
          </mxGeometry>
        </mxCell>
        <mxCell id="evgMNFWdpNjPDC0drzfe-111" value="&lt;div&gt;進捗度確認・&lt;/div&gt;&lt;div&gt;報告（四半期）&lt;/div&gt;" style="rounded=1;whiteSpace=wrap;html=1;fillColor=#F19C99;" parent="1" vertex="1">
          <mxGeometry x="965.75" y="3115" width="103.25" height="43" as="geometry" />
        </mxCell>
        <mxCell id="evgMNFWdpNjPDC0drzfe-113" value="&lt;div&gt;仕入確定&lt;/div&gt;&lt;div&gt;連絡受領&lt;/div&gt;" style="rounded=1;whiteSpace=wrap;html=1;fillColor=#F19C99;" parent="1" vertex="1">
          <mxGeometry x="427.5" y="3048" width="105" height="43" as="geometry" />
        </mxCell>
        <mxCell id="evgMNFWdpNjPDC0drzfe-115" value="&lt;div&gt;進捗度に応じて&lt;/div&gt;&lt;div&gt;進行基準会計処理&lt;/div&gt;&lt;div&gt;（四半期）&lt;/div&gt;" style="rounded=1;whiteSpace=wrap;html=1;fillColor=#F19C99;" parent="1" vertex="1">
          <mxGeometry x="152.5" y="3158" width="120" height="54" as="geometry" />
        </mxCell>
        <mxCell id="evgMNFWdpNjPDC0drzfe-120" style="edgeStyle=orthogonalEdgeStyle;rounded=1;orthogonalLoop=1;jettySize=auto;html=1;entryX=0.5;entryY=0;entryDx=0;entryDy=0;" parent="1" source="evgMNFWdpNjPDC0drzfe-117" target="evgMNFWdpNjPDC0drzfe-118" edge="1">
          <mxGeometry relative="1" as="geometry">
            <Array as="points">
              <mxPoint x="347" y="3310" />
              <mxPoint x="213" y="3310" />
            </Array>
          </mxGeometry>
        </mxCell>
        <mxCell id="evgMNFWdpNjPDC0drzfe-117" value="&lt;div&gt;ＦＢデータ&lt;/div&gt;&lt;div&gt;とりまとめ&lt;/div&gt;" style="rounded=1;whiteSpace=wrap;html=1;fillColor=#dae8fc;strokeColor=#6c8ebf;" parent="1" vertex="1">
          <mxGeometry x="294" y="3256" width="105" height="43" as="geometry" />
        </mxCell>
        <mxCell id="evgMNFWdpNjPDC0drzfe-118" value="&lt;div&gt;ＦＢ支払・&lt;/div&gt;&lt;div&gt;支払伝票&lt;/div&gt;" style="rounded=1;whiteSpace=wrap;html=1;fillColor=#dae8fc;strokeColor=#6c8ebf;" parent="1" vertex="1">
          <mxGeometry x="160" y="3327.5" width="105" height="43" as="geometry" />
        </mxCell>
        <mxCell id="evgMNFWdpNjPDC0drzfe-130" style="edgeStyle=orthogonalEdgeStyle;rounded=1;orthogonalLoop=1;jettySize=auto;html=1;entryX=0;entryY=0.5;entryDx=0;entryDy=0;" parent="1" source="evgMNFWdpNjPDC0drzfe-121" target="evgMNFWdpNjPDC0drzfe-124" edge="1">
          <mxGeometry relative="1" as="geometry">
            <Array as="points">
              <mxPoint x="347" y="3570" />
              <mxPoint x="481" y="3570" />
            </Array>
          </mxGeometry>
        </mxCell>
        <mxCell id="evgMNFWdpNjPDC0drzfe-121" value="請求書作成" style="rounded=1;whiteSpace=wrap;html=1;fillColor=#e1d5e7;strokeColor=#9673a6;" parent="1" vertex="1">
          <mxGeometry x="286.5" y="3509" width="120" height="43" as="geometry" />
        </mxCell>
        <mxCell id="evgMNFWdpNjPDC0drzfe-127" style="edgeStyle=orthogonalEdgeStyle;rounded=1;orthogonalLoop=1;jettySize=auto;html=1;entryX=0.5;entryY=0;entryDx=0;entryDy=0;" parent="1" source="evgMNFWdpNjPDC0drzfe-122" target="evgMNFWdpNjPDC0drzfe-121" edge="1">
          <mxGeometry relative="1" as="geometry">
            <Array as="points">
              <mxPoint x="550" y="3495" />
              <mxPoint x="347" y="3495" />
            </Array>
          </mxGeometry>
        </mxCell>
        <mxCell id="evgMNFWdpNjPDC0drzfe-122" value="先方から請求の承諾" style="rounded=1;whiteSpace=wrap;html=1;fillColor=#e1d5e7;strokeColor=#9673a6;" parent="1" vertex="1">
          <mxGeometry x="432" y="3446" width="228" height="43" as="geometry" />
        </mxCell>
        <mxCell id="evgMNFWdpNjPDC0drzfe-140" style="edgeStyle=orthogonalEdgeStyle;rounded=1;orthogonalLoop=1;jettySize=auto;html=1;entryX=0.5;entryY=0;entryDx=0;entryDy=0;" parent="1" source="evgMNFWdpNjPDC0drzfe-124" target="evgMNFWdpNjPDC0drzfe-137" edge="1">
          <mxGeometry relative="1" as="geometry">
            <Array as="points">
              <mxPoint x="883" y="3570" />
              <mxPoint x="883" y="3550" />
              <mxPoint x="1149" y="3550" />
            </Array>
          </mxGeometry>
        </mxCell>
        <mxCell id="evgMNFWdpNjPDC0drzfe-144" style="edgeStyle=orthogonalEdgeStyle;rounded=1;orthogonalLoop=1;jettySize=auto;html=1;entryX=0.5;entryY=0;entryDx=0;entryDy=0;" parent="1" source="evgMNFWdpNjPDC0drzfe-124" target="evgMNFWdpNjPDC0drzfe-125" edge="1">
          <mxGeometry relative="1" as="geometry">
            <Array as="points">
              <mxPoint x="615" y="3605" />
              <mxPoint x="346" y="3605" />
            </Array>
          </mxGeometry>
        </mxCell>
        <mxCell id="evgMNFWdpNjPDC0drzfe-124" value="請求書確認" style="rounded=1;whiteSpace=wrap;html=1;fillColor=#e1d5e7;strokeColor=#9673a6;" parent="1" vertex="1">
          <mxGeometry x="554.5" y="3548" width="120" height="43" as="geometry" />
        </mxCell>
        <mxCell id="evgMNFWdpNjPDC0drzfe-125" value="請求書送付" style="rounded=1;whiteSpace=wrap;html=1;fillColor=#e1d5e7;strokeColor=#9673a6;" parent="1" vertex="1">
          <mxGeometry x="285.5" y="3627" width="120" height="43" as="geometry" />
        </mxCell>
        <mxCell id="evgMNFWdpNjPDC0drzfe-131" style="edgeStyle=orthogonalEdgeStyle;rounded=1;orthogonalLoop=1;jettySize=auto;html=1;entryX=0;entryY=0.5;entryDx=0;entryDy=0;" parent="1" source="evgMNFWdpNjPDC0drzfe-132" target="evgMNFWdpNjPDC0drzfe-135" edge="1">
          <mxGeometry relative="1" as="geometry">
            <Array as="points">
              <mxPoint x="754" y="3583" />
              <mxPoint x="888" y="3583" />
            </Array>
          </mxGeometry>
        </mxCell>
        <mxCell id="evgMNFWdpNjPDC0drzfe-132" value="請求書作成" style="rounded=1;whiteSpace=wrap;html=1;fillColor=#e1d5e7;strokeColor=#9673a6;" parent="1" vertex="1">
          <mxGeometry x="689.75" y="3509" width="120" height="43" as="geometry" />
        </mxCell>
        <mxCell id="evgMNFWdpNjPDC0drzfe-143" style="edgeStyle=orthogonalEdgeStyle;rounded=1;orthogonalLoop=1;jettySize=auto;html=1;entryX=0.5;entryY=0;entryDx=0;entryDy=0;" parent="1" source="evgMNFWdpNjPDC0drzfe-134" target="evgMNFWdpNjPDC0drzfe-132" edge="1">
          <mxGeometry relative="1" as="geometry">
            <Array as="points">
              <mxPoint x="949" y="3495" />
              <mxPoint x="750" y="3495" />
            </Array>
          </mxGeometry>
        </mxCell>
        <mxCell id="evgMNFWdpNjPDC0drzfe-134" value="先方から請求の承諾" style="rounded=1;whiteSpace=wrap;html=1;fillColor=#e1d5e7;strokeColor=#9673a6;" parent="1" vertex="1">
          <mxGeometry x="835.25" y="3446" width="228" height="43" as="geometry" />
        </mxCell>
        <mxCell id="evgMNFWdpNjPDC0drzfe-139" style="edgeStyle=orthogonalEdgeStyle;rounded=1;orthogonalLoop=1;jettySize=auto;html=1;entryX=0;entryY=0.5;entryDx=0;entryDy=0;" parent="1" source="evgMNFWdpNjPDC0drzfe-135" target="evgMNFWdpNjPDC0drzfe-137" edge="1">
          <mxGeometry relative="1" as="geometry" />
        </mxCell>
        <mxCell id="evgMNFWdpNjPDC0drzfe-135" value="請求書確認" style="rounded=1;whiteSpace=wrap;html=1;fillColor=#e1d5e7;strokeColor=#9673a6;" parent="1" vertex="1">
          <mxGeometry x="964" y="3561" width="105" height="43" as="geometry" />
        </mxCell>
        <mxCell id="evgMNFWdpNjPDC0drzfe-136" value="請求書送付" style="rounded=1;whiteSpace=wrap;html=1;fillColor=#e1d5e7;strokeColor=#9673a6;" parent="1" vertex="1">
          <mxGeometry x="686.25" y="3627" width="120" height="43" as="geometry" />
        </mxCell>
        <mxCell id="evgMNFWdpNjPDC0drzfe-141" style="edgeStyle=orthogonalEdgeStyle;rounded=1;orthogonalLoop=1;jettySize=auto;html=1;exitX=0.5;exitY=1;exitDx=0;exitDy=0;entryX=0.5;entryY=0;entryDx=0;entryDy=0;" parent="1" source="evgMNFWdpNjPDC0drzfe-137" target="evgMNFWdpNjPDC0drzfe-136" edge="1">
          <mxGeometry relative="1" as="geometry">
            <Array as="points">
              <mxPoint x="1143" y="3615" />
              <mxPoint x="750" y="3615" />
            </Array>
          </mxGeometry>
        </mxCell>
        <mxCell id="evgMNFWdpNjPDC0drzfe-137" value="請求書確認" style="rounded=1;whiteSpace=wrap;html=1;fillColor=#e1d5e7;strokeColor=#9673a6;" parent="1" vertex="1">
          <mxGeometry x="1096.5" y="3561" width="105.5" height="43" as="geometry" />
        </mxCell>
        <mxCell id="evgMNFWdpNjPDC0drzfe-151" style="edgeStyle=orthogonalEdgeStyle;rounded=1;orthogonalLoop=1;jettySize=auto;html=1;exitX=0.5;exitY=1;exitDx=0;exitDy=0;entryX=0.5;entryY=0;entryDx=0;entryDy=0;" parent="1" source="evgMNFWdpNjPDC0drzfe-145" target="evgMNFWdpNjPDC0drzfe-149" edge="1">
          <mxGeometry relative="1" as="geometry">
            <Array as="points">
              <mxPoint x="346" y="3795" />
              <mxPoint x="616" y="3795" />
            </Array>
          </mxGeometry>
        </mxCell>
        <mxCell id="evgMNFWdpNjPDC0drzfe-145" value="&lt;div&gt;請求書・&lt;/div&gt;&lt;div&gt;引渡確認書作成&lt;/div&gt;" style="rounded=1;whiteSpace=wrap;html=1;fillColor=#dae8fc;strokeColor=#6c8ebf;" parent="1" vertex="1">
          <mxGeometry x="293" y="3742" width="105" height="43" as="geometry" />
        </mxCell>
        <mxCell id="evgMNFWdpNjPDC0drzfe-153" style="edgeStyle=orthogonalEdgeStyle;rounded=1;orthogonalLoop=1;jettySize=auto;html=1;exitX=0.5;exitY=1;exitDx=0;exitDy=0;" parent="1" source="evgMNFWdpNjPDC0drzfe-147" target="evgMNFWdpNjPDC0drzfe-150" edge="1">
          <mxGeometry relative="1" as="geometry">
            <Array as="points">
              <mxPoint x="344" y="3916" />
              <mxPoint x="344" y="3935" />
              <mxPoint x="618" y="3935" />
            </Array>
          </mxGeometry>
        </mxCell>
        <mxCell id="evgMNFWdpNjPDC0drzfe-155" style="edgeStyle=orthogonalEdgeStyle;rounded=1;orthogonalLoop=1;jettySize=auto;html=1;exitX=0.5;exitY=1;exitDx=0;exitDy=0;entryX=0.5;entryY=0;entryDx=0;entryDy=0;" parent="1" source="evgMNFWdpNjPDC0drzfe-147" target="evgMNFWdpNjPDC0drzfe-148" edge="1">
          <mxGeometry relative="1" as="geometry" />
        </mxCell>
        <mxCell id="evgMNFWdpNjPDC0drzfe-169" style="edgeStyle=orthogonalEdgeStyle;rounded=1;orthogonalLoop=1;jettySize=auto;html=1;entryX=0.5;entryY=0;entryDx=0;entryDy=0;" parent="1" source="evgMNFWdpNjPDC0drzfe-147" target="evgMNFWdpNjPDC0drzfe-164" edge="1">
          <mxGeometry relative="1" as="geometry">
            <Array as="points">
              <mxPoint x="346" y="3930" />
              <mxPoint x="1020" y="3930" />
            </Array>
          </mxGeometry>
        </mxCell>
        <mxCell id="evgMNFWdpNjPDC0drzfe-147" value="&lt;div&gt;請求書・&lt;/div&gt;&lt;div&gt;引渡確認書送付&lt;/div&gt;&lt;div&gt;（or手渡し）&lt;/div&gt;" style="rounded=1;whiteSpace=wrap;html=1;fillColor=#dae8fc;strokeColor=#6c8ebf;" parent="1" vertex="1">
          <mxGeometry x="293" y="3873" width="105" height="43" as="geometry" />
        </mxCell>
        <mxCell id="evgMNFWdpNjPDC0drzfe-172" style="edgeStyle=orthogonalEdgeStyle;rounded=1;orthogonalLoop=1;jettySize=auto;html=1;exitX=0.5;exitY=1;exitDx=0;exitDy=0;entryX=0.5;entryY=0;entryDx=0;entryDy=0;" parent="1" source="evgMNFWdpNjPDC0drzfe-148" target="evgMNFWdpNjPDC0drzfe-171" edge="1">
          <mxGeometry relative="1" as="geometry">
            <Array as="points">
              <mxPoint x="346" y="4070" />
              <mxPoint x="212" y="4070" />
            </Array>
          </mxGeometry>
        </mxCell>
        <mxCell id="evgMNFWdpNjPDC0drzfe-148" value="&lt;div&gt;経理へ完了報告&lt;/div&gt;&lt;div&gt;（引渡確認書写しの提出）&lt;/div&gt;" style="rounded=1;whiteSpace=wrap;html=1;fillColor=#dae8fc;strokeColor=#6c8ebf;" parent="1" vertex="1">
          <mxGeometry x="293" y="4015" width="105" height="43" as="geometry" />
        </mxCell>
        <mxCell id="evgMNFWdpNjPDC0drzfe-152" style="edgeStyle=orthogonalEdgeStyle;rounded=1;orthogonalLoop=1;jettySize=auto;html=1;" parent="1" source="evgMNFWdpNjPDC0drzfe-149" target="evgMNFWdpNjPDC0drzfe-147" edge="1">
          <mxGeometry relative="1" as="geometry">
            <Array as="points">
              <mxPoint x="616" y="3860" />
              <mxPoint x="344" y="3860" />
            </Array>
          </mxGeometry>
        </mxCell>
        <mxCell id="evgMNFWdpNjPDC0drzfe-149" value="&lt;div&gt;請求書・&lt;/div&gt;&lt;div&gt;引渡確認書確認&lt;/div&gt;" style="rounded=1;whiteSpace=wrap;html=1;fillColor=#dae8fc;strokeColor=#6c8ebf;" parent="1" vertex="1">
          <mxGeometry x="563" y="3808" width="105" height="43" as="geometry" />
        </mxCell>
        <mxCell id="evgMNFWdpNjPDC0drzfe-170" style="edgeStyle=orthogonalEdgeStyle;rounded=1;orthogonalLoop=1;jettySize=auto;html=1;exitX=0.5;exitY=1;exitDx=0;exitDy=0;" parent="1" source="evgMNFWdpNjPDC0drzfe-150" edge="1">
          <mxGeometry relative="1" as="geometry">
            <mxPoint x="1281" y="4025" as="targetPoint" />
            <Array as="points">
              <mxPoint x="618" y="4000" />
              <mxPoint x="1281" y="4000" />
            </Array>
          </mxGeometry>
        </mxCell>
        <mxCell id="evgMNFWdpNjPDC0drzfe-150" value="予算実績報告" style="rounded=1;whiteSpace=wrap;html=1;fillColor=#dae8fc;strokeColor=#6c8ebf;" parent="1" vertex="1">
          <mxGeometry x="565.5" y="3948" width="105" height="43" as="geometry" />
        </mxCell>
        <mxCell id="evgMNFWdpNjPDC0drzfe-156" style="edgeStyle=orthogonalEdgeStyle;rounded=1;orthogonalLoop=1;jettySize=auto;html=1;exitX=0.5;exitY=1;exitDx=0;exitDy=0;entryX=0.5;entryY=0;entryDx=0;entryDy=0;" parent="1" source="evgMNFWdpNjPDC0drzfe-157" target="evgMNFWdpNjPDC0drzfe-163" edge="1">
          <mxGeometry relative="1" as="geometry">
            <Array as="points">
              <mxPoint x="747.75" y="3796" />
              <mxPoint x="1017.75" y="3796" />
            </Array>
          </mxGeometry>
        </mxCell>
        <mxCell id="evgMNFWdpNjPDC0drzfe-157" value="&lt;div&gt;請求書・&lt;/div&gt;&lt;div&gt;引渡確認書作成&lt;/div&gt;" style="rounded=1;whiteSpace=wrap;html=1;fillColor=#dae8fc;strokeColor=#6c8ebf;" parent="1" vertex="1">
          <mxGeometry x="694.75" y="3743" width="105" height="43" as="geometry" />
        </mxCell>
        <mxCell id="evgMNFWdpNjPDC0drzfe-158" style="edgeStyle=orthogonalEdgeStyle;rounded=1;orthogonalLoop=1;jettySize=auto;html=1;exitX=0.5;exitY=1;exitDx=0;exitDy=0;" parent="1" source="evgMNFWdpNjPDC0drzfe-160" target="evgMNFWdpNjPDC0drzfe-164" edge="1">
          <mxGeometry relative="1" as="geometry">
            <Array as="points">
              <mxPoint x="745.75" y="3926" />
              <mxPoint x="1019.75" y="3926" />
            </Array>
          </mxGeometry>
        </mxCell>
        <mxCell id="evgMNFWdpNjPDC0drzfe-159" style="edgeStyle=orthogonalEdgeStyle;rounded=1;orthogonalLoop=1;jettySize=auto;html=1;exitX=0.5;exitY=1;exitDx=0;exitDy=0;entryX=0.5;entryY=0;entryDx=0;entryDy=0;" parent="1" source="evgMNFWdpNjPDC0drzfe-160" target="evgMNFWdpNjPDC0drzfe-161" edge="1">
          <mxGeometry relative="1" as="geometry" />
        </mxCell>
        <mxCell id="evgMNFWdpNjPDC0drzfe-160" value="&lt;div&gt;請求書・&lt;/div&gt;&lt;div&gt;引渡確認書送付&lt;/div&gt;&lt;div&gt;（or手渡し）&lt;/div&gt;" style="rounded=1;whiteSpace=wrap;html=1;fillColor=#dae8fc;strokeColor=#6c8ebf;" parent="1" vertex="1">
          <mxGeometry x="694.75" y="3874" width="105" height="43" as="geometry" />
        </mxCell>
        <mxCell id="evgMNFWdpNjPDC0drzfe-173" style="edgeStyle=orthogonalEdgeStyle;rounded=1;orthogonalLoop=1;jettySize=auto;html=1;entryX=0.5;entryY=0;entryDx=0;entryDy=0;" parent="1" source="evgMNFWdpNjPDC0drzfe-161" target="evgMNFWdpNjPDC0drzfe-171" edge="1">
          <mxGeometry relative="1" as="geometry">
            <Array as="points">
              <mxPoint x="747" y="4070" />
              <mxPoint x="212" y="4070" />
            </Array>
          </mxGeometry>
        </mxCell>
        <mxCell id="evgMNFWdpNjPDC0drzfe-161" value="&lt;div&gt;経理へ完了報告&lt;/div&gt;&lt;div&gt;（引渡確認書写しの提出）&lt;/div&gt;" style="rounded=1;whiteSpace=wrap;html=1;fillColor=#dae8fc;strokeColor=#6c8ebf;" parent="1" vertex="1">
          <mxGeometry x="694.75" y="4016" width="105" height="43" as="geometry" />
        </mxCell>
        <mxCell id="evgMNFWdpNjPDC0drzfe-162" style="edgeStyle=orthogonalEdgeStyle;rounded=1;orthogonalLoop=1;jettySize=auto;html=1;" parent="1" source="evgMNFWdpNjPDC0drzfe-163" target="evgMNFWdpNjPDC0drzfe-160" edge="1">
          <mxGeometry relative="1" as="geometry">
            <Array as="points">
              <mxPoint x="1017.75" y="3861" />
              <mxPoint x="745.75" y="3861" />
            </Array>
          </mxGeometry>
        </mxCell>
        <mxCell id="evgMNFWdpNjPDC0drzfe-163" value="&lt;div&gt;請求書・&lt;/div&gt;&lt;div&gt;引渡確認書確認&lt;/div&gt;" style="rounded=1;whiteSpace=wrap;html=1;fillColor=#dae8fc;strokeColor=#6c8ebf;" parent="1" vertex="1">
          <mxGeometry x="964.75" y="3809" width="105" height="43" as="geometry" />
        </mxCell>
        <mxCell id="evgMNFWdpNjPDC0drzfe-168" style="edgeStyle=orthogonalEdgeStyle;rounded=1;orthogonalLoop=1;jettySize=auto;html=1;" parent="1" source="evgMNFWdpNjPDC0drzfe-164" target="evgMNFWdpNjPDC0drzfe-166" edge="1">
          <mxGeometry relative="1" as="geometry">
            <Array as="points">
              <mxPoint x="1020" y="4010" />
              <mxPoint x="1151" y="4010" />
            </Array>
          </mxGeometry>
        </mxCell>
        <mxCell id="evgMNFWdpNjPDC0drzfe-164" value="予算実績報告" style="rounded=1;whiteSpace=wrap;html=1;fillColor=#dae8fc;strokeColor=#6c8ebf;" parent="1" vertex="1">
          <mxGeometry x="967.25" y="3949" width="105" height="43" as="geometry" />
        </mxCell>
        <mxCell id="evgMNFWdpNjPDC0drzfe-166" value="予算実績確認" style="rounded=1;whiteSpace=wrap;html=1;fillColor=#dae8fc;strokeColor=#6c8ebf;" parent="1" vertex="1">
          <mxGeometry x="1098" y="4027" width="105" height="43" as="geometry" />
        </mxCell>
        <mxCell id="evgMNFWdpNjPDC0drzfe-167" value="予算実績確認" style="rounded=1;whiteSpace=wrap;html=1;fillColor=#dae8fc;strokeColor=#6c8ebf;" parent="1" vertex="1">
          <mxGeometry x="1231" y="4027" width="105" height="43" as="geometry" />
        </mxCell>
        <mxCell id="evgMNFWdpNjPDC0drzfe-175" style="edgeStyle=orthogonalEdgeStyle;rounded=1;orthogonalLoop=1;jettySize=auto;html=1;exitX=0.5;exitY=1;exitDx=0;exitDy=0;entryX=0.5;entryY=0;entryDx=0;entryDy=0;" parent="1" source="evgMNFWdpNjPDC0drzfe-171" target="evgMNFWdpNjPDC0drzfe-174" edge="1">
          <mxGeometry relative="1" as="geometry" />
        </mxCell>
        <mxCell id="evgMNFWdpNjPDC0drzfe-171" value="完成日付入力" style="rounded=1;whiteSpace=wrap;html=1;fillColor=#dae8fc;strokeColor=#6c8ebf;" parent="1" vertex="1">
          <mxGeometry x="159" y="4084" width="105" height="43" as="geometry" />
        </mxCell>
        <mxCell id="evgMNFWdpNjPDC0drzfe-174" value="&lt;div&gt;売上伝票・&lt;/div&gt;&lt;div&gt;原価振替伝票&lt;/div&gt;" style="rounded=1;whiteSpace=wrap;html=1;fillColor=#dae8fc;strokeColor=#6c8ebf;" parent="1" vertex="1">
          <mxGeometry x="158.5" y="4145" width="105" height="43" as="geometry" />
        </mxCell>
        <mxCell id="evgMNFWdpNjPDC0drzfe-179" style="edgeStyle=orthogonalEdgeStyle;rounded=1;orthogonalLoop=1;jettySize=auto;html=1;exitX=0.5;exitY=1;exitDx=0;exitDy=0;entryX=0.5;entryY=0;entryDx=0;entryDy=0;" parent="1" source="evgMNFWdpNjPDC0drzfe-176" target="evgMNFWdpNjPDC0drzfe-177" edge="1">
          <mxGeometry relative="1" as="geometry">
            <Array as="points">
              <mxPoint x="211" y="4300" />
              <mxPoint x="346" y="4300" />
            </Array>
          </mxGeometry>
        </mxCell>
        <mxCell id="evgMNFWdpNjPDC0drzfe-176" value="&lt;div&gt;入金確認・&lt;/div&gt;&lt;div&gt;連絡・入金伝票&lt;/div&gt;" style="rounded=1;whiteSpace=wrap;html=1;fillColor=#f8cecc;strokeColor=#b85450;" parent="1" vertex="1">
          <mxGeometry x="158.5" y="4244.5" width="105" height="43" as="geometry" />
        </mxCell>
        <mxCell id="evgMNFWdpNjPDC0drzfe-177" value="入金連絡受領" style="rounded=1;whiteSpace=wrap;html=1;fillColor=#f8cecc;strokeColor=#b85450;" parent="1" vertex="1">
          <mxGeometry x="293" y="4314" width="105" height="43" as="geometry" />
        </mxCell>
      </root>
    </mxGraphModel>
  </diagram>
  <diagram name="ページ2" id="IHyvXCVLcqZR2mFroHuq">
    <mxGraphModel dx="-395" dy="-2627" grid="1" gridSize="10" guides="1" tooltips="1" connect="1" arrows="1" fold="1" page="1" pageScale="1" pageWidth="1169" pageHeight="1654" math="0" shadow="0">
      <root>
        <mxCell id="pyegKbwkKR_933f1RU7M-0" />
        <mxCell id="pyegKbwkKR_933f1RU7M-1" parent="pyegKbwkKR_933f1RU7M-0" />
        <mxCell id="A_XbppQSwzp14XtmDf0l-0" value="ユーザー調査" style="rounded=1;whiteSpace=wrap;html=1;fillColor=#CCCCFF;" parent="pyegKbwkKR_933f1RU7M-1" vertex="1">
          <mxGeometry x="2221" y="4870" width="89" height="43" as="geometry" />
        </mxCell>
        <mxCell id="A_XbppQSwzp14XtmDf0l-1" value="プロジェクトの概要" style="rounded=1;whiteSpace=wrap;html=1;fillColor=#7EA6E0;" parent="pyegKbwkKR_933f1RU7M-1" vertex="1">
          <mxGeometry x="1730" y="4580" width="89" height="43" as="geometry" />
        </mxCell>
        <mxCell id="A_XbppQSwzp14XtmDf0l-2" value="公開" style="rounded=1;whiteSpace=wrap;html=1;fillColor=#EA6B66;" parent="pyegKbwkKR_933f1RU7M-1" vertex="1">
          <mxGeometry x="2102" y="4870" width="89" height="43" as="geometry" />
        </mxCell>
        <mxCell id="A_XbppQSwzp14XtmDf0l-3" value="" style="rounded=1;whiteSpace=wrap;html=1;fillColor=#FFFF99;" parent="pyegKbwkKR_933f1RU7M-1" vertex="1">
          <mxGeometry x="1980" y="4870" width="89" height="43" as="geometry" />
        </mxCell>
        <mxCell id="A_XbppQSwzp14XtmDf0l-4" value="プロトタイピング" style="rounded=1;whiteSpace=wrap;html=1;fillColor=#FFCCE6;" parent="pyegKbwkKR_933f1RU7M-1" vertex="1">
          <mxGeometry x="1860" y="4870" width="89" height="43" as="geometry" />
        </mxCell>
        <mxCell id="v4QyO54aRFuVaRKvWjpp-0" value="ユーザー調査" style="rounded=1;whiteSpace=wrap;html=1;fillColor=#CCCCFF;" parent="pyegKbwkKR_933f1RU7M-1" vertex="1">
          <mxGeometry x="2091" y="4640" width="89" height="43" as="geometry" />
        </mxCell>
        <mxCell id="v4QyO54aRFuVaRKvWjpp-1" value="公開" style="rounded=1;whiteSpace=wrap;html=1;fillColor=#EA6B66;" parent="pyegKbwkKR_933f1RU7M-1" vertex="1">
          <mxGeometry x="1972" y="4640" width="89" height="43" as="geometry" />
        </mxCell>
        <mxCell id="v4QyO54aRFuVaRKvWjpp-2" value="" style="rounded=1;whiteSpace=wrap;html=1;fillColor=#FFFF99;" parent="pyegKbwkKR_933f1RU7M-1" vertex="1">
          <mxGeometry x="1850" y="4640" width="89" height="43" as="geometry" />
        </mxCell>
        <mxCell id="v4QyO54aRFuVaRKvWjpp-3" value="プロトタイピング" style="rounded=1;whiteSpace=wrap;html=1;fillColor=#FFCCE6;" parent="pyegKbwkKR_933f1RU7M-1" vertex="1">
          <mxGeometry x="1730" y="4640" width="89" height="43" as="geometry" />
        </mxCell>
      </root>
    </mxGraphModel>
  </diagram>
</mxfile>
